<svg xmlns="http://www.w3.org/2000/svg" width="129" height="27" viewBox="0 0 129 27" preserveAspectRatio="xMinYMin"><style type="text/css">  
	.st0{display:none;}
	.st1{fill:#FFFFFF;}
</style><path class="st1" d="M8.4 9.5C7.8 9.7 6.7 10 5.4 10c-1.6 0-2.8-0.4-3.7-1.3C0.9 8 0.4 6.7 0.4 5.3c0-3 2.1-4.9 5.3-4.9 1.2 0 2.1 0.2 2.5 0.4L7.8 2.2C7.3 2 6.6 1.8 5.6 1.8c-2 0-3.4 1.2-3.4 3.4 0 2.1 1.3 3.4 3.3 3.4 0.6 0 1.1-0.1 1.3-0.2V6.1H5.1V4.7h3.3V9.5z"/><path class="st1" d="M11.4 7c0 1.2 1 1.8 2.1 1.8 0.8 0 1.4-0.1 1.9-0.3l0.3 1.2c-0.6 0.2-1.4 0.4-2.4 0.4 -2.2 0-3.5-1.4-3.5-3.4 0-1.9 1.1-3.7 3.3-3.7S16 4.8 16 6.3c0 0.3 0 0.6-0.1 0.7C15.9 7 11.4 7 11.4 7zM14.4 5.8c0-0.6-0.3-1.7-1.4-1.7s-1.5 1-1.6 1.7H14.4z"/><path class="st1" d="M19.4 1.2v1.9H21v1.3h-1.6v3c0 0.8 0.2 1.3 0.9 1.3 0.3 0 0.5 0 0.7-0.1v1.3c-0.3 0.1-0.7 0.2-1.2 0.2 -0.6 0-1.2-0.2-1.5-0.6 -0.4-0.4-0.5-1-0.5-1.9V4.4h-1V3.1h1V1.6L19.4 1.2z"/><path class="st1" d="M27.2 1.2v1.9h1.6v1.3h-1.6v3c0 0.8 0.2 1.3 0.9 1.3 0.3 0 0.5 0 0.7-0.1v1.3c-0.3 0.1-0.7 0.2-1.2 0.2 -0.6 0-1.2-0.2-1.5-0.6 -0.4-0.4-0.5-1-0.5-1.9V4.4h-1V3.1h1V1.6L27.2 1.2z"/><path class="st1" d="M30.2 0h1.7v4.1l0 0c0.2-0.3 0.5-0.6 0.9-0.8C33.1 3.1 33.5 3 34 3c1.2 0 2.4 0.8 2.4 3v4h-1.7V6.1c0-1-0.4-1.7-1.3-1.7 -0.7 0-1.1 0.4-1.3 1C32 5.5 32 5.7 32 5.9V10h-1.7V0H30.2z"/><path class="st1" d="M39.4 7c0 1.2 1 1.8 2.1 1.8 0.8 0 1.4-0.1 1.9-0.3l0.3 1.2c-0.6 0.2-1.4 0.4-2.4 0.4 -2.2 0-3.5-1.4-3.5-3.4 0-1.9 1.1-3.7 3.3-3.7C43.3 3 44 4.8 44 6.3c0 0.3 0 0.6 0 0.7H39.4zM42.4 5.8c0-0.6-0.3-1.7-1.4-1.7 -1.1 0-1.5 1-1.6 1.7H42.4z"/><path class="st1" d="M48.4 0.6c0.5-0.1 1.5-0.2 2.5-0.2 1.3 0 2.1 0.2 2.7 0.6 0.6 0.4 1 1 1 1.8 0 0.9-0.5 1.7-1.6 2l0 0c1 0.3 1.9 1 1.9 2.3 0 0.8-0.4 1.5-0.9 1.9 -0.7 0.6-1.8 0.9-3.5 0.9 -1 0-1.7-0.1-2.1-0.1C48.4 9.8 48.4 0.6 48.4 0.6zM50.1 4.4H51c1.2 0 1.9-0.6 1.9-1.4 0-0.9-0.7-1.3-1.8-1.3 -0.5 0-0.8 0-1 0.1C50.1 1.8 50.1 4.4 50.1 4.4zM50.1 8.7c0.2 0 0.5 0 0.9 0 1.1 0 2.1-0.4 2.1-1.6 0-1.1-1-1.5-2.1-1.5h-0.9V8.7z"/><path class="st1" d="M62.5 7.9c0 0.8 0 1.5 0.1 2H61l-0.1-1 0 0c-0.3 0.5-1 1.2-2.2 1.2s-2.4-0.7-2.4-3v-4H58v3.7c0 1.1 0.4 1.9 1.3 1.9 0.7 0 1.1-0.5 1.3-0.9 0.1-0.2 0.1-0.3 0.1-0.5V3.1h1.7v4.8H62.5z"/><path class="st1" d="M64.2 8.4c0.4 0.2 1.1 0.5 1.8 0.5 0.8 0 1.1-0.3 1.1-0.8s-0.3-0.7-1.1-1c-1.3-0.5-1.9-1.2-1.9-2 0-1.2 1-2.1 2.6-2.1 0.8 0 1.4 0.2 1.8 0.4l-0.3 1.2c-0.3-0.2-0.8-0.4-1.4-0.4s-1 0.3-1 0.7c0 0.4 0.3 0.6 1.2 1C68.2 6.3 68.8 7 68.8 8c0 1.2-1 2.1-2.8 2.1 -0.8 0-1.6-0.2-2.1-0.5L64.2 8.4z"/><path class="st1" d="M72 1.2c0 0.5-0.4 0.9-1 0.9s-1-0.4-1-0.9 0.4-0.9 1-0.9C71.6 0.3 72 0.7 72 1.2zM70.2 9.9V3.1h1.7v6.8H70.2z"/><path class="st1" d="M73.8 5.2c0-0.8 0-1.4-0.1-2h1.5l0.1 1 0 0c0.3-0.5 1-1.2 2.2-1.2s2.4 0.8 2.4 2.9v4h-1.7V6.1c0-1-0.4-1.7-1.3-1.7 -0.7 0-1.2 0.5-1.3 1 -0.1 0.2-0.1 0.4-0.1 0.6v4h-1.7V5.2z"/><path class="st1" d="M83 7c0 1.2 1 1.8 2.1 1.8 0.8 0 1.4-0.1 1.9-0.3l0.3 1.2c-0.6 0.2-1.4 0.4-2.4 0.4 -2.2 0-3.5-1.4-3.5-3.4 0-1.9 1.1-3.7 3.3-3.7 2.2 0 2.9 1.8 2.9 3.3 0 0.3 0 0.6-0.1 0.7C87.5 7 83 7 83 7zM86 5.8c0-0.6-0.3-1.7-1.4-1.7s-1.5 1-1.6 1.7H86z"/><path class="st1" d="M88.9 8.4c0.4 0.2 1.1 0.5 1.8 0.5 0.8 0 1.1-0.3 1.1-0.8s-0.3-0.7-1.1-1c-1.3-0.5-1.9-1.2-1.9-2 0-1.2 1-2.1 2.6-2.1 0.8 0 1.4 0.2 1.8 0.4l-0.3 1.2c-0.3-0.2-0.8-0.4-1.4-0.4s-1 0.3-1 0.7c0 0.4 0.3 0.6 1.2 1C92.9 6.3 93.5 7 93.5 8c0 1.2-1 2.1-2.8 2.1 -0.8 0-1.6-0.2-2.1-0.5L88.9 8.4z"/><path class="st1" d="M94.7 8.4c0.4 0.2 1.1 0.5 1.8 0.5 0.8 0 1.1-0.3 1.1-0.8s-0.3-0.7-1.1-1c-1.3-0.5-1.9-1.2-1.9-2 0-1.2 1-2.1 2.6-2.1C98 3 98.6 3.2 99 3.4l-0.3 1.2c-0.3-0.2-0.8-0.4-1.4-0.4s-1 0.3-1 0.7c0 0.4 0.3 0.6 1.2 1C98.7 6.3 99.3 7 99.3 8c0 1.2-1 2.1-2.8 2.1 -0.8 0-1.6-0.2-2.1-0.5L94.7 8.4z"/><path class="st1" d="M108.9 5.8h-3.6v2.8h4V10h-5.7V0.5h5.5v1.4h-3.8v2.4h3.6V5.8z"/><path class="st1" d="M110.8 0h1.7v9.9h-1.7V0z"/><path class="st1" d="M116.2 1.2c0 0.5-0.4 0.9-1 0.9s-1-0.4-1-0.9 0.4-0.9 1-0.9C115.8 0.3 116.2 0.7 116.2 1.2zM114.4 9.9V3.1h1.7v6.8H114.4z"/><path class="st1" d="M119.9 1.2v1.9h1.6v1.3h-1.6v3c0 0.8 0.2 1.3 0.9 1.3 0.3 0 0.5 0 0.7-0.1v1.3c-0.3 0.1-0.7 0.2-1.2 0.2 -0.6 0-1.2-0.2-1.5-0.6 -0.4-0.4-0.5-1-0.5-1.9V4.4h-1V3.1h1V1.6L119.9 1.2z"/><path class="st1" d="M124 7c0 1.2 1 1.8 2.1 1.8 0.8 0 1.4-0.1 1.9-0.3l0.3 1.2c-0.6 0.2-1.4 0.4-2.4 0.4 -2.2 0-3.5-1.4-3.5-3.4 0-1.9 1.1-3.7 3.3-3.7 2.2 0 2.9 1.8 2.9 3.3 0 0.3 0 0.6-0.1 0.7C128.5 7 124 7 124 7zM127 5.8c0-0.6-0.3-1.7-1.4-1.7s-1.5 1-1.6 1.7H127z"/><path class="st1" d="M4.3 17.4c0.6-0.1 1.6-0.2 2.6-0.2 1.4 0 2.3 0.2 2.9 0.8 0.5 0.4 0.8 1.1 0.8 1.9 0 1.2-0.8 2-1.7 2.4l0 0c0.7 0.3 1.1 0.9 1.3 1.8 0.3 1.2 0.5 2.3 0.7 2.6H9.2c-0.1-0.3-0.4-1.1-0.6-2.2 -0.3-1.2-0.7-1.6-1.7-1.7H6v3.9H4.3V17.4zM6 21.6h1c1.2 0 1.9-0.6 1.9-1.6s-0.7-1.5-1.8-1.5c-0.5 0-0.9 0-1.1 0.1C6 18.6 6 21.6 6 21.6z"/><path class="st1" d="M13.4 23.8c0 1.2 1 1.8 2.1 1.8 0.8 0 1.4-0.1 1.9-0.3l0.3 1.2c-0.6 0.2-1.4 0.4-2.4 0.4 -2.2 0-3.5-1.4-3.5-3.4 0-1.9 1.1-3.7 3.3-3.7s2.9 1.8 2.9 3.3c0 0.3 0 0.6-0.1 0.7H13.4zM16.4 22.6c0-0.6-0.3-1.7-1.4-1.7s-1.5 1-1.6 1.7H16.4z"/><path class="st1" d="M20.4 19.9l0.7 3.1c0.2 0.7 0.3 1.5 0.4 2.2l0 0c0.1-0.7 0.4-1.5 0.6-2.2l0.9-3.1h1.4l0.9 3c0.2 0.8 0.4 1.5 0.5 2.3l0 0c0.1-0.7 0.3-1.5 0.4-2.3l0.8-3h1.7l-2.1 6.8H25L24.2 24c-0.2-0.7-0.4-1.4-0.5-2.2l0 0c-0.1 0.8-0.3 1.5-0.5 2.2l-0.9 2.8h-1.6l-2-6.8h1.7V19.9z"/><path class="st1" d="M33.6 26.7L33.5 26l0 0c-0.4 0.5-1.1 0.9-2 0.9 -1.4 0-2.1-1-2.1-2 0-1.7 1.5-2.6 4-2.6v-0.1c0-0.4-0.2-1.2-1.4-1.2 -0.7 0-1.4 0.2-1.8 0.5l-0.3-1.1c0.5-0.3 1.4-0.6 2.5-0.6 2.2 0 2.8 1.4 2.8 2.9v2.5c0 0.6 0 1.2 0.1 1.6L33.6 26.7 33.6 26.7zM33.4 23.4c-1.2 0-2.4 0.2-2.4 1.3 0 0.7 0.4 1 1 1 0.7 0 1.2-0.4 1.3-0.9 0-0.1 0.1-0.3 0.1-0.4C33.4 24.4 33.4 23.4 33.4 23.4z"/><path class="st1" d="M36.9 22.1c0-0.9 0-1.6-0.1-2.2h1.5l0.1 1.3h0.1c0.3-1 1.1-1.5 1.9-1.5 0.2 0 0.3 0 0.4 0v1.6c-0.1 0-0.3-0.1-0.5-0.1 -0.8 0-1.4 0.5-1.5 1.3 0 0.2-0.1 0.3-0.1 0.5v3.5H37v-4.4H36.9z"/><path class="st1" d="M48 16.8v8c0 0.7 0 1.5 0.1 1.9h-1.5l-0.1-1.1 0 0c-0.4 0.8-1.2 1.2-2.2 1.2 -1.6 0-2.9-1.4-2.9-3.5 0-2.3 1.4-3.6 3.1-3.6 0.9 0 1.6 0.4 1.9 0.9l0 0v-3.9H48V16.8zM46.3 22.8c0-0.1 0-0.3 0-0.4 -0.2-0.7-0.7-1.2-1.5-1.2 -1.1 0-1.7 1-1.7 2.3 0 1.2 0.6 2.2 1.7 2.2 0.7 0 1.3-0.5 1.5-1.2 0-0.2 0.1-0.3 0.1-0.5L46.3 22.8 46.3 22.8z"/><path class="st1" d="M49.8 25.2c0.4 0.2 1.1 0.5 1.8 0.5 0.8 0 1.1-0.3 1.1-0.8s-0.3-0.7-1.1-1c-1.3-0.5-1.9-1.2-1.9-2 0-1.2 1-2.1 2.6-2.1 0.8 0 1.4 0.2 1.8 0.4l-0.3 1.2C53.5 21.2 53 21 52.4 21c-0.6 0-1 0.3-1 0.7 0 0.4 0.3 0.6 1.2 1 1.2 0.4 1.8 1.1 1.8 2.1 0 1.2-1 2.1-2.8 2.1 -0.8 0-1.6-0.2-2.1-0.5L49.8 25.2z"/><path class="st1" d="M65.5 26.5c-0.4 0.2-1.3 0.4-2.4 0.4 -3 0-4.8-1.9-4.8-4.7 0-3.1 2.2-5 5-5 1.1 0 1.9 0.2 2.3 0.4L65.2 19c-0.4-0.2-1.1-0.4-1.8-0.4 -1.9 0-3.3 1.2-3.3 3.5 0 2.1 1.2 3.4 3.3 3.4 0.7 0 1.4-0.1 1.9-0.4L65.5 26.5z"/><path class="st1" d="M66.8 22.1c0-0.9 0-1.6-0.1-2.2h1.5l0.1 1.3h0.1c0.3-1 1.1-1.5 1.9-1.5 0.2 0 0.3 0 0.4 0v1.6c-0.1 0-0.3-0.1-0.5-0.1 -0.8 0-1.4 0.5-1.5 1.3 0 0.2-0.1 0.3-0.1 0.5v3.5h-1.7v-4.4H66.8z"/><path class="st1" d="M72.9 23.8c0 1.2 1 1.8 2.1 1.8 0.8 0 1.4-0.1 1.9-0.3l0.3 1.2c-0.6 0.2-1.4 0.4-2.4 0.4 -2.2 0-3.5-1.4-3.5-3.4 0-1.9 1.1-3.7 3.3-3.7 2.2 0 2.9 1.8 2.9 3.3 0 0.3 0 0.6-0.1 0.7H72.9zM75.9 22.6c0-0.6-0.3-1.7-1.4-1.7s-1.5 1-1.6 1.7H75.9z"/><path class="st1" d="M85.2 16.8v8c0 0.7 0 1.5 0.1 1.9h-1.5l-0.1-1.1 0 0c-0.4 0.8-1.2 1.2-2.2 1.2 -1.6 0-2.9-1.4-2.9-3.5 0-2.3 1.4-3.6 3.1-3.6 0.9 0 1.6 0.4 1.9 0.9l0 0v-3.9h1.6V16.8zM83.5 22.8c0-0.1 0-0.3 0-0.4 -0.2-0.7-0.7-1.2-1.5-1.2 -1.1 0-1.7 1-1.7 2.3 0 1.2 0.6 2.2 1.7 2.2 0.7 0 1.3-0.5 1.5-1.2 0-0.2 0.1-0.3 0.1-0.5L83.5 22.8 83.5 22.8z"/><path class="st1" d="M88.9 18c0 0.5-0.4 0.9-1 0.9s-1-0.4-1-0.9 0.4-0.9 1-0.9S88.8 17.5 88.9 18zM87 26.7v-6.8h1.7v6.8H87z"/><path class="st1" d="M92.6 18v1.9h1.6v1.3h-1.6v3c0 0.8 0.2 1.3 0.9 1.3 0.3 0 0.5 0 0.7-0.1v1.3c-0.3 0.1-0.7 0.2-1.2 0.2 -0.6 0-1.2-0.2-1.5-0.6 -0.4-0.4-0.5-1-0.5-1.9v-3.2h-1v-1.3h1v-1.5L92.6 18z"/><path class="st1" d="M105.3 26.5c-0.4 0.2-1.3 0.4-2.4 0.4 -3 0-4.8-1.9-4.8-4.7 0-3.1 2.2-5 5-5 1.1 0 1.9 0.2 2.3 0.4L105 19c-0.4-0.2-1.1-0.4-1.8-0.4 -1.9 0-3.3 1.2-3.3 3.5 0 2.1 1.2 3.4 3.3 3.4 0.7 0 1.4-0.1 1.9-0.4L105.3 26.5z"/><path class="st1" d="M110.4 26.7l-0.1-0.8 0 0c-0.4 0.5-1.1 0.9-2 0.9 -1.4 0-2.1-1-2.1-2 0-1.7 1.5-2.6 4-2.6v-0.1c0-0.4-0.2-1.2-1.4-1.2 -0.7 0-1.4 0.2-1.8 0.5l-0.3-1.1c0.5-0.3 1.4-0.6 2.5-0.6 2.2 0 2.8 1.4 2.8 2.9v2.5c0 0.6 0 1.2 0.1 1.6C112.1 26.7 110.4 26.7 110.4 26.7zM110.1 23.4c-1.2 0-2.4 0.2-2.4 1.3 0 0.7 0.4 1 1 1 0.7 0 1.2-0.4 1.3-0.9 0-0.1 0.1-0.3 0.1-0.4V23.4z"/><path class="st1" d="M113.6 22.1c0-0.9 0-1.6-0.1-2.2h1.5l0.1 1.3h0.1c0.3-1 1.1-1.5 1.9-1.5 0.2 0 0.3 0 0.4 0v1.6c-0.1 0-0.3-0.1-0.5-0.1 -0.8 0-1.4 0.5-1.5 1.3 0 0.2-0.1 0.3-0.1 0.5v3.5h-1.7v-4.4H113.6z"/><path class="st1" d="M124.8 16.8v8c0 0.7 0 1.5 0.1 1.9h-1.5l-0.1-1.1 0 0c-0.4 0.8-1.2 1.2-2.2 1.2 -1.6 0-2.9-1.4-2.9-3.5 0-2.3 1.4-3.6 3.1-3.6 0.9 0 1.6 0.4 1.9 0.9l0 0v-3.9h1.6V16.8zM123.1 22.8c0-0.1 0-0.3 0-0.4 -0.2-0.7-0.7-1.2-1.5-1.2 -1.1 0-1.7 1-1.7 2.3 0 1.2 0.6 2.2 1.7 2.2 0.7 0 1.3-0.5 1.5-1.2 0-0.2 0.1-0.3 0.1-0.5L123.1 22.8 123.1 22.8z"/></svg>
 
