<?xml version="1.0" encoding="utf-8"?>
<!-- Generator: Adobe Illustrator 21.0.0, SVG Export Plug-In . SVG Version: 6.00 Build 0)  -->
<svg version="1.1" xmlns="http://www.w3.org/2000/svg" xmlns:xlink="http://www.w3.org/1999/xlink" x="0px" y="0px" width="220px"
	 height="28px" viewBox="0 0 220 28" style="enable-background:new 0 0 220 28;" xml:space="preserve" preserveAspectRatio="xMinYMin">
<style type="text/css">
	.st0{fill:url(#SVGID_1_);stroke:#0464B4;stroke-miterlimit:10;}
	.st1{fill:url(#SVGID_2_);stroke:#0464B4;stroke-miterlimit:10;}
	.st2{fill:url(#SVGID_3_);}
	.st3{opacity:0.5;}
	.st4{fill:#F2F2F2;}
	.st5{display:none;}
	.st6{display:inline;fill:url(#SVGID_4_);}
	.st7{fill:url(#SVGID_5_);}
	.st8{display:inline;opacity:0.5;}
	.st9{display:inline;}
</style>
<g id="Layer_1">
	<linearGradient id="SVGID_1_" gradientUnits="userSpaceOnUse" x1="55.2515" y1="-0.8518" x2="54.7485" y2="27.9663">
		<stop  offset="0" style="stop-color:#004C72"/>
		<stop  offset="1" style="stop-color:#184D96"/>
	</linearGradient>
	<path class="st0" d="M104,27.1H6c-3.3,0-6-2.7-6-6V6c0-3.3,2.7-6,6-6h98c3.3,0,6,2.7,6,6v15.1C110,24.4,107.3,27.1,104,27.1z"/>
	
		<linearGradient id="SVGID_2_" gradientUnits="userSpaceOnUse" x1="165.2515" y1="-0.8518" x2="164.7485" y2="27.9663" gradientTransform="matrix(-1 0 0 -1 330 27.1144)">
		<stop  offset="0" style="stop-color:#004C72"/>
		<stop  offset="1" style="stop-color:#184D96"/>
	</linearGradient>
	<path class="st1" d="M116,0h98c3.3,0,6,2.7,6,6v15.1c0,3.3-2.7,6-6,6h-98c-3.3,0-6-2.7-6-6V6C110,2.7,112.7,0,116,0z"/>
	
		<linearGradient id="SVGID_3_" gradientUnits="userSpaceOnUse" x1="165" y1="13.5572" x2="165" y2="1.0002" gradientTransform="matrix(-1 0 0 -1 330 27.1144)">
		<stop  offset="0" style="stop-color:#FFFFFF;stop-opacity:0.15"/>
		<stop  offset="0.9944" style="stop-color:#FFFFFF;stop-opacity:0.45"/>
	</linearGradient>
	<path class="st2" d="M116,26.1h3.6h92.6h1.8c2.8,0,5-2.2,5-5v-7.6h-6.8h-92.6H111v7.6C111,23.9,113.2,26.1,116,26.1z"/>
	<g class="st3">
		<path d="M128,17.7l-0.8,2.7h-1.8l3-9.4h2.2l3.1,9.4h-1.8l-0.9-2.7H128z M130.7,16.4l-0.7-2.3c-0.2-0.6-0.3-1.2-0.5-1.8h0
			c-0.1,0.5-0.3,1.2-0.4,1.8l-0.7,2.3H130.7z"/>
		<path d="M135,11.1c0.6-0.1,1.5-0.2,2.6-0.2c1.3,0,2.2,0.3,2.8,0.8c0.6,0.5,0.9,1.2,0.9,2.1c0,0.9-0.3,1.6-0.8,2.1
			c-0.7,0.7-1.8,1-3,1c-0.3,0-0.6,0-0.8-0.1v3.6H135V11.1z M136.7,15.5c0.2,0.1,0.5,0.1,0.8,0.1c1.3,0,2.1-0.6,2.1-1.7
			c0-1.1-0.7-1.6-1.9-1.6c-0.5,0-0.8,0-1,0.1V15.5z"/>
		<path d="M142.8,11.1c0.6-0.1,1.5-0.2,2.6-0.2c1.3,0,2.2,0.3,2.8,0.8c0.6,0.5,0.9,1.2,0.9,2.1c0,0.9-0.3,1.6-0.8,2.1
			c-0.7,0.7-1.8,1-3,1c-0.3,0-0.6,0-0.8-0.1v3.6h-1.7V11.1z M144.6,15.5c0.2,0.1,0.5,0.1,0.8,0.1c1.3,0,2.1-0.6,2.1-1.7
			c0-1.1-0.7-1.6-1.9-1.6c-0.5,0-0.8,0-1,0.1V15.5z"/>
		<path d="M150.7,10.9h1.7v8h3.9v1.4h-5.6V10.9z"/>
		<path d="M158.5,20.4v-3.9l-3-5.5h2l1.1,2.4c0.3,0.7,0.6,1.2,0.8,1.9h0c0.2-0.6,0.5-1.2,0.8-1.9l1.1-2.4h1.9l-3.1,5.5v4H158.5z"/>
		<path d="M168.6,12.4h-2.7v-1.4h7.1v1.4h-2.7v8h-1.7V12.4z"/>
		<path d="M182.1,15.6c0,3.2-1.9,5-4.5,5c-2.7,0-4.3-2-4.3-4.8c0-2.9,1.8-4.9,4.5-4.9C180.5,10.8,182.1,12.9,182.1,15.6z M175,15.7
			c0,1.9,1,3.4,2.6,3.4c1.7,0,2.6-1.5,2.6-3.5c0-1.8-0.9-3.5-2.6-3.5C175.9,12.2,175,13.7,175,15.7z"/>
		<path d="M183.6,11.1c0.8-0.1,1.7-0.2,2.7-0.2c1.8,0,3,0.4,3.9,1.1c0.9,0.7,1.5,1.9,1.5,3.5c0,1.7-0.6,2.9-1.5,3.8
			c-0.9,0.9-2.4,1.3-4.3,1.3c-1,0-1.8-0.1-2.3-0.1V11.1z M185.3,19.1c0.2,0,0.6,0,1,0c2.2,0,3.6-1.2,3.6-3.6c0-2.1-1.2-3.3-3.3-3.3
			c-0.5,0-0.9,0-1.2,0.1V19.1z"/>
		<path d="M194.8,17.7l-0.8,2.7h-1.8l3-9.4h2.2l3.1,9.4h-1.8l-0.9-2.7H194.8z M197.5,16.4l-0.7-2.3c-0.2-0.6-0.3-1.2-0.5-1.8h0
			c-0.1,0.5-0.3,1.2-0.4,1.8l-0.7,2.3H197.5z"/>
		<path d="M202.7,20.4v-3.9l-3-5.5h2l1.1,2.4c0.3,0.7,0.6,1.2,0.8,1.9h0c0.2-0.6,0.5-1.2,0.8-1.9l1.1-2.4h1.9l-3.1,5.5v4H202.7z"/>
	</g>
	<g>
		<path class="st4" d="M127,16.7l-0.8,2.7h-1.8l3-9.4h2.2l3.1,9.4h-1.8l-0.9-2.7H127z M129.7,15.4l-0.7-2.3
			c-0.2-0.6-0.3-1.2-0.5-1.8h0c-0.1,0.5-0.3,1.2-0.4,1.8l-0.7,2.3H129.7z"/>
		<path class="st4" d="M134,10.1c0.6-0.1,1.5-0.2,2.6-0.2c1.3,0,2.2,0.3,2.8,0.8c0.6,0.5,0.9,1.2,0.9,2.1c0,0.9-0.3,1.6-0.8,2.1
			c-0.7,0.7-1.8,1-3,1c-0.3,0-0.6,0-0.8-0.1v3.6H134V10.1z M135.7,14.5c0.2,0.1,0.5,0.1,0.8,0.1c1.3,0,2.1-0.6,2.1-1.7
			c0-1.1-0.7-1.6-1.9-1.6c-0.5,0-0.8,0-1,0.1V14.5z"/>
		<path class="st4" d="M141.8,10.1c0.6-0.1,1.5-0.2,2.6-0.2c1.3,0,2.2,0.3,2.8,0.8c0.6,0.5,0.9,1.2,0.9,2.1c0,0.9-0.3,1.6-0.8,2.1
			c-0.7,0.7-1.8,1-3,1c-0.3,0-0.6,0-0.8-0.1v3.6h-1.7V10.1z M143.6,14.5c0.2,0.1,0.5,0.1,0.8,0.1c1.3,0,2.1-0.6,2.1-1.7
			c0-1.1-0.7-1.6-1.9-1.6c-0.5,0-0.8,0-1,0.1V14.5z"/>
		<path class="st4" d="M149.7,9.9h1.7v8h3.9v1.4h-5.6V9.9z"/>
		<path class="st4" d="M157.5,19.4v-3.9l-3-5.5h2l1.1,2.4c0.3,0.7,0.6,1.2,0.8,1.9h0c0.2-0.6,0.5-1.2,0.8-1.9l1.1-2.4h1.9l-3.1,5.5
			v4H157.5z"/>
		<path class="st4" d="M167.6,11.4h-2.7V9.9h7.1v1.4h-2.7v8h-1.7V11.4z"/>
		<path class="st4" d="M181.1,14.6c0,3.2-1.9,5-4.5,5c-2.7,0-4.3-2-4.3-4.8c0-2.9,1.8-4.9,4.5-4.9C179.5,9.8,181.1,11.9,181.1,14.6z
			 M174,14.7c0,1.9,1,3.4,2.6,3.4c1.7,0,2.6-1.5,2.6-3.5c0-1.8-0.9-3.5-2.6-3.5C174.9,11.2,174,12.7,174,14.7z"/>
		<path class="st4" d="M182.6,10.1c0.8-0.1,1.7-0.2,2.7-0.2c1.8,0,3,0.4,3.9,1.1c0.9,0.7,1.5,1.9,1.5,3.5c0,1.7-0.6,2.9-1.5,3.8
			c-0.9,0.9-2.4,1.3-4.3,1.3c-1,0-1.8-0.1-2.3-0.1V10.1z M184.3,18.1c0.2,0,0.6,0,1,0c2.2,0,3.6-1.2,3.6-3.6c0-2.1-1.2-3.3-3.3-3.3
			c-0.5,0-0.9,0-1.2,0.1V18.1z"/>
		<path class="st4" d="M193.8,16.7l-0.8,2.7h-1.8l3-9.4h2.2l3.1,9.4h-1.8l-0.9-2.7H193.8z M196.5,15.4l-0.7-2.3
			c-0.2-0.6-0.3-1.2-0.5-1.8h0c-0.1,0.5-0.3,1.2-0.4,1.8l-0.7,2.3H196.5z"/>
		<path class="st4" d="M201.7,19.4v-3.9l-3-5.5h2l1.1,2.4c0.3,0.7,0.6,1.2,0.8,1.9h0c0.2-0.6,0.5-1.2,0.8-1.9l1.1-2.4h1.9l-3.1,5.5
			v4H201.7z"/>
	</g>
</g>
<g id="Layer_2" class="st5">
	<linearGradient id="SVGID_4_" gradientUnits="userSpaceOnUse" x1="43.5" y1="13.5572" x2="43.5" y2="1.0002">
		<stop  offset="0" style="stop-color:#FFFFFF;stop-opacity:0.15"/>
		<stop  offset="0.9944" style="stop-color:#FFFFFF;stop-opacity:0.45"/>
	</linearGradient>
	<path class="st6" d="M86,13.6V6c0-2.8-2.2-5-5-5H6C3.3,1,1,3.3,1,6v7.6H86z"/>
</g>
<g id="Layer_5">
</g>
<g id="Layer_3">
</g>
<g id="Layer_4">
	<linearGradient id="SVGID_5_" gradientUnits="userSpaceOnUse" x1="55" y1="13.5572" x2="55" y2="1.0002">
		<stop  offset="0" style="stop-color:#FFFFFF;stop-opacity:0.15"/>
		<stop  offset="0.9944" style="stop-color:#FFFFFF;stop-opacity:0.45"/>
	</linearGradient>
	<path class="st7" d="M104,1h-3.6H7.8H6C3.2,1,1,3.3,1,6v7.6h6.8h92.6h8.6V6C109,3.3,106.8,1,104,1z"/>
</g>
<g id="Layer_9">
	<g class="st3">
		<path d="M18,16.7l-0.8,2.7h-1.8l3-9.4h2.2l3.1,9.4h-1.8L21,16.7H18z M20.7,15.4L20,13.1c-0.2-0.6-0.3-1.2-0.5-1.8h0
			c-0.1,0.5-0.3,1.2-0.4,1.8l-0.7,2.3H20.7z"/>
		<path d="M25,10.1c0.6-0.1,1.5-0.2,2.6-0.2c1.3,0,2.2,0.3,2.8,0.8c0.6,0.5,0.9,1.2,0.9,2.1c0,0.9-0.3,1.6-0.8,2.1
			c-0.7,0.7-1.8,1-3,1c-0.3,0-0.6,0-0.8-0.1v3.6H25V10.1z M26.7,14.5c0.2,0.1,0.5,0.1,0.8,0.1c1.3,0,2.1-0.6,2.1-1.7
			c0-1.1-0.7-1.6-1.9-1.6c-0.5,0-0.8,0-1,0.1V14.5z"/>
		<path d="M32.8,10.1c0.6-0.1,1.5-0.2,2.6-0.2c1.3,0,2.2,0.3,2.8,0.8c0.6,0.5,0.9,1.2,0.9,2.1c0,0.9-0.3,1.6-0.8,2.1
			c-0.7,0.7-1.8,1-3,1c-0.3,0-0.6,0-0.8-0.1v3.6h-1.7V10.1z M34.6,14.5c0.2,0.1,0.5,0.1,0.8,0.1c1.3,0,2.1-0.6,2.1-1.7
			c0-1.1-0.7-1.6-1.9-1.6c-0.5,0-0.8,0-1,0.1V14.5z"/>
		<path d="M40.7,9.9h1.7v8h3.9v1.4h-5.6V9.9z"/>
		<path d="M48.5,19.4v-3.9l-3-5.5h2l1.1,2.4c0.3,0.7,0.6,1.2,0.8,1.9h0c0.2-0.6,0.5-1.2,0.8-1.9l1.1-2.4h1.9l-3.1,5.5v4H48.5z"/>
		<path d="M58.6,11.4h-2.7V9.9H63v1.4h-2.7v8h-1.7V11.4z"/>
		<path d="M72.1,14.6c0,3.2-1.9,5-4.5,5c-2.7,0-4.3-2-4.3-4.8c0-2.9,1.8-4.9,4.5-4.9C70.5,9.8,72.1,11.9,72.1,14.6z M65,14.7
			c0,1.9,1,3.4,2.6,3.4c1.7,0,2.6-1.5,2.6-3.5c0-1.8-0.9-3.5-2.6-3.5C65.9,11.2,65,12.7,65,14.7z"/>
		<path d="M73.6,10.1c0.8-0.1,1.7-0.2,2.7-0.2c1.8,0,3,0.4,3.9,1.1c0.9,0.7,1.5,1.9,1.5,3.5c0,1.7-0.6,2.9-1.5,3.8
			c-0.9,0.9-2.4,1.3-4.3,1.3c-1,0-1.8-0.1-2.3-0.1V10.1z M75.3,18.1c0.2,0,0.6,0,1,0c2.2,0,3.6-1.2,3.6-3.6c0-2.1-1.2-3.3-3.3-3.3
			c-0.5,0-0.9,0-1.2,0.1V18.1z"/>
		<path d="M84.8,16.7L84,19.4h-1.8l3-9.4h2.2l3.1,9.4h-1.8l-0.9-2.7H84.8z M87.5,15.4l-0.7-2.3c-0.2-0.6-0.3-1.2-0.5-1.8h0
			c-0.1,0.5-0.3,1.2-0.4,1.8l-0.7,2.3H87.5z"/>
		<path d="M92.7,19.4v-3.9l-3-5.5h2l1.1,2.4c0.3,0.7,0.6,1.2,0.8,1.9h0c0.2-0.6,0.5-1.2,0.8-1.9l1.1-2.4h1.9l-3.1,5.5v4H92.7z"/>
	</g>
</g>
<g id="Layer_6">
	<g>
		<path class="st4" d="M17,15.7l-0.8,2.7h-1.8l3-9.4h2.2l3.1,9.4h-1.8L20,15.7H17z M19.7,14.4L19,12.1c-0.2-0.6-0.3-1.2-0.5-1.8h0
			c-0.1,0.5-0.3,1.2-0.4,1.8l-0.7,2.3H19.7z"/>
		<path class="st4" d="M24,9.1c0.6-0.1,1.5-0.2,2.6-0.2c1.3,0,2.2,0.3,2.8,0.8c0.6,0.5,0.9,1.2,0.9,2.1c0,0.9-0.3,1.6-0.8,2.1
			c-0.7,0.7-1.8,1-3,1c-0.3,0-0.6,0-0.8-0.1v3.6H24V9.1z M25.7,13.5c0.2,0.1,0.5,0.1,0.8,0.1c1.3,0,2.1-0.6,2.1-1.7
			c0-1.1-0.7-1.6-1.9-1.6c-0.5,0-0.8,0-1,0.1V13.5z"/>
		<path class="st4" d="M31.8,9.1c0.6-0.1,1.5-0.2,2.6-0.2c1.3,0,2.2,0.3,2.8,0.8c0.6,0.5,0.9,1.2,0.9,2.1c0,0.9-0.3,1.6-0.8,2.1
			c-0.7,0.7-1.8,1-3,1c-0.3,0-0.6,0-0.8-0.1v3.6h-1.7V9.1z M33.6,13.5c0.2,0.1,0.5,0.1,0.8,0.1c1.3,0,2.1-0.6,2.1-1.7
			c0-1.1-0.7-1.6-1.9-1.6c-0.5,0-0.8,0-1,0.1V13.5z"/>
		<path class="st4" d="M39.7,8.9h1.7v8h3.9v1.4h-5.6V8.9z"/>
		<path class="st4" d="M47.5,18.4v-3.9l-3-5.5h2l1.1,2.4c0.3,0.7,0.6,1.2,0.8,1.9h0c0.2-0.6,0.5-1.2,0.8-1.9l1.1-2.4h1.9l-3.1,5.5v4
			H47.5z"/>
		<path class="st4" d="M57.6,10.4h-2.7V8.9H62v1.4h-2.7v8h-1.7V10.4z"/>
		<path class="st4" d="M71.1,13.6c0,3.2-1.9,5-4.5,5c-2.7,0-4.3-2-4.3-4.8c0-2.9,1.8-4.9,4.5-4.9C69.5,8.8,71.1,10.9,71.1,13.6z
			 M64,13.7c0,1.9,1,3.4,2.6,3.4c1.7,0,2.6-1.5,2.6-3.5c0-1.8-0.9-3.5-2.6-3.5C64.9,10.2,64,11.7,64,13.7z"/>
		<path class="st4" d="M72.6,9.1c0.8-0.1,1.7-0.2,2.7-0.2c1.8,0,3,0.4,3.9,1.1c0.9,0.7,1.5,1.9,1.5,3.5c0,1.7-0.6,2.9-1.5,3.8
			c-0.9,0.9-2.4,1.3-4.3,1.3c-1,0-1.8-0.1-2.3-0.1V9.1z M74.3,17.1c0.2,0,0.6,0,1,0c2.2,0,3.6-1.2,3.6-3.6c0-2.1-1.2-3.3-3.3-3.3
			c-0.5,0-0.9,0-1.2,0.1V17.1z"/>
		<path class="st4" d="M83.8,15.7L83,18.4h-1.8l3-9.4h2.2l3.1,9.4h-1.8l-0.9-2.7H83.8z M86.5,14.4l-0.7-2.3
			c-0.2-0.6-0.3-1.2-0.5-1.8h0c-0.1,0.5-0.3,1.2-0.4,1.8l-0.7,2.3H86.5z"/>
		<path class="st4" d="M91.7,18.4v-3.9l-3-5.5h2l1.1,2.4c0.3,0.7,0.6,1.2,0.8,1.9h0c0.2-0.6,0.5-1.2,0.8-1.9l1.1-2.4h1.9l-3.1,5.5v4
			H91.7z"/>
	</g>
</g>
<g id="Layer_8" class="st5">
	<g class="st8">
		<path d="M19.8,16.5l-1,2.9h-1.2l3.1-9.2h1.4l3.1,9.2h-1.3l-1-2.9H19.8z M22.8,15.6l-0.9-2.7c-0.2-0.6-0.3-1.1-0.5-1.7h0
			c-0.1,0.5-0.3,1.1-0.5,1.7l-0.9,2.7H22.8z"/>
		<path d="M26.7,10.3c0.6-0.1,1.3-0.2,2.3-0.2c1.2,0,2,0.3,2.6,0.8c0.5,0.4,0.8,1.1,0.8,1.9c0,0.8-0.2,1.5-0.7,2
			c-0.6,0.7-1.7,1-2.8,1c-0.4,0-0.7,0-1-0.1v3.7h-1.2V10.3z M27.9,14.7c0.3,0.1,0.6,0.1,1,0.1c1.4,0,2.3-0.7,2.3-2
			c0-1.2-0.9-1.8-2.2-1.8c-0.5,0-0.9,0-1.1,0.1V14.7z"/>
		<path d="M34,10.3c0.6-0.1,1.3-0.2,2.3-0.2c1.2,0,2,0.3,2.6,0.8c0.5,0.4,0.8,1.1,0.8,1.9c0,0.8-0.2,1.5-0.7,2c-0.6,0.7-1.7,1-2.8,1
			c-0.4,0-0.7,0-1-0.1v3.7H34V10.3z M35.2,14.7c0.3,0.1,0.6,0.1,1,0.1c1.4,0,2.3-0.7,2.3-2c0-1.2-0.9-1.8-2.2-1.8
			c-0.5,0-0.9,0-1.1,0.1V14.7z"/>
		<path d="M41.2,10.2h1.2v8.2h3.9v1h-5.1V10.2z"/>
		<path d="M48.6,19.4v-3.9l-2.9-5.3H47l1.3,2.5c0.4,0.7,0.6,1.3,0.9,1.9h0c0.3-0.6,0.6-1.2,0.9-1.9l1.3-2.5h1.4l-3.1,5.3v3.9H48.6z"
			/>
		<path d="M58,11.2h-2.8v-1h6.8v1h-2.8v8.2H58V11.2z"/>
		<path d="M70.6,14.7c0,3.2-1.9,4.9-4.3,4.9c-2.4,0-4.1-1.9-4.1-4.7c0-2.9,1.8-4.8,4.3-4.8C69,10,70.6,12,70.6,14.7z M63.4,14.8
			c0,2,1.1,3.7,2.9,3.7c1.9,0,3-1.7,3-3.8c0-1.8-1-3.7-2.9-3.7C64.4,11,63.4,12.8,63.4,14.8z"/>
		<path d="M72.1,10.3c0.7-0.1,1.6-0.2,2.5-0.2c1.7,0,2.9,0.4,3.7,1.1c0.8,0.8,1.3,1.8,1.3,3.3c0,1.5-0.5,2.7-1.3,3.6
			c-0.9,0.9-2.3,1.3-4.1,1.3c-0.8,0-1.6,0-2.2-0.1V10.3z M73.3,18.5c0.3,0.1,0.7,0.1,1.2,0.1c2.5,0,3.9-1.4,3.9-3.9
			c0-2.2-1.2-3.6-3.7-3.6c-0.6,0-1.1,0.1-1.4,0.1V18.5z"/>
		<path d="M82.5,16.5l-1,2.9h-1.2l3.1-9.2h1.4l3.1,9.2h-1.3l-1-2.9H82.5z M85.6,15.6l-0.9-2.7c-0.2-0.6-0.3-1.1-0.5-1.7h0
			c-0.1,0.5-0.3,1.1-0.5,1.7l-0.9,2.7H85.6z"/>
		<path d="M90.4,19.4v-3.9l-2.9-5.3h1.4l1.3,2.5c0.4,0.7,0.6,1.3,0.9,1.9h0c0.3-0.6,0.6-1.2,0.9-1.9l1.3-2.5h1.4l-3.1,5.3v3.9H90.4z
			"/>
	</g>
</g>
<g id="Layer_7" class="st5">
	<g class="st9">
		<path class="st4" d="M19,15.6l-1,2.9h-1.2l3.1-9.2h1.4l3.1,9.2h-1.3l-1-2.9H19z M22,14.7l-0.9-2.7c-0.2-0.6-0.3-1.1-0.5-1.7h0
			c-0.1,0.5-0.3,1.1-0.5,1.7l-0.9,2.7H22z"/>
		<path class="st4" d="M25.8,9.4c0.6-0.1,1.3-0.2,2.3-0.2c1.2,0,2,0.3,2.6,0.8c0.5,0.4,0.8,1.1,0.8,1.9c0,0.8-0.2,1.5-0.7,2
			c-0.6,0.7-1.7,1-2.8,1c-0.4,0-0.7,0-1-0.1v3.7h-1.2V9.4z M27,13.9c0.3,0.1,0.6,0.1,1,0.1c1.4,0,2.3-0.7,2.3-2
			c0-1.2-0.9-1.8-2.2-1.8c-0.5,0-0.9,0-1.1,0.1V13.9z"/>
		<path class="st4" d="M33.1,9.4c0.6-0.1,1.3-0.2,2.3-0.2c1.2,0,2,0.3,2.6,0.8c0.5,0.4,0.8,1.1,0.8,1.9c0,0.8-0.2,1.5-0.7,2
			c-0.6,0.7-1.7,1-2.8,1c-0.4,0-0.7,0-1-0.1v3.7h-1.2V9.4z M34.3,13.9c0.3,0.1,0.6,0.1,1,0.1c1.4,0,2.3-0.7,2.3-2
			c0-1.2-0.9-1.8-2.2-1.8c-0.5,0-0.9,0-1.1,0.1V13.9z"/>
		<path class="st4" d="M40.4,9.3h1.2v8.2h3.9v1h-5.1V9.3z"/>
		<path class="st4" d="M47.7,18.5v-3.9l-2.9-5.3h1.4l1.3,2.5c0.4,0.7,0.6,1.3,0.9,1.9h0c0.3-0.6,0.6-1.2,0.9-1.9l1.3-2.5H52L49,14.6
			v3.9H47.7z"/>
		<path class="st4" d="M57.2,10.3h-2.8v-1h6.8v1h-2.8v8.2h-1.2V10.3z"/>
		<path class="st4" d="M69.7,13.8c0,3.2-1.9,4.9-4.3,4.9c-2.4,0-4.1-1.9-4.1-4.7c0-2.9,1.8-4.8,4.3-4.8
			C68.1,9.2,69.7,11.1,69.7,13.8z M62.6,14c0,2,1.1,3.7,2.9,3.7c1.9,0,3-1.7,3-3.8c0-1.8-1-3.7-2.9-3.7C63.6,10.1,62.6,12,62.6,14z"
			/>
		<path class="st4" d="M71.3,9.4c0.7-0.1,1.6-0.2,2.5-0.2c1.7,0,2.9,0.4,3.7,1.1c0.8,0.8,1.3,1.8,1.3,3.3c0,1.5-0.5,2.7-1.3,3.6
			c-0.9,0.9-2.3,1.3-4.1,1.3c-0.8,0-1.6,0-2.2-0.1V9.4z M72.5,17.6c0.3,0.1,0.7,0.1,1.2,0.1c2.5,0,3.9-1.4,3.9-3.9
			c0-2.2-1.2-3.6-3.7-3.6c-0.6,0-1.1,0.1-1.4,0.1V17.6z"/>
		<path class="st4" d="M81.7,15.6l-1,2.9h-1.2l3.1-9.2h1.4l3.1,9.2h-1.3l-1-2.9H81.7z M84.7,14.7l-0.9-2.7c-0.2-0.6-0.3-1.1-0.5-1.7
			h0c-0.1,0.5-0.3,1.1-0.5,1.7l-0.9,2.7H84.7z"/>
		<path class="st4" d="M89.5,18.5v-3.9l-2.9-5.3H88l1.3,2.5c0.4,0.7,0.6,1.3,0.9,1.9h0c0.3-0.6,0.6-1.2,0.9-1.9l1.3-2.5h1.4
			l-3.1,5.3v3.9H89.5z"/>
	</g>
</g>
</svg>
