<svg xmlns="http://www.w3.org/2000/svg" width="139" height="55" viewBox="0 0 139 55" preserveAspectRatio="xMinYMin"><style type="text/css">  
	.st0{display:none;}
	.st1{fill:#444854;}
	.st2{fill:#004C72;}
</style><path class="st1" d="M0.7 1.4c1-0.1 2.1-0.3 3.3-0.3 2.3 0 3.9 0.5 4.9 1.5C10 3.6 10.7 5 10.7 7s-0.6 3.6-1.7 4.7 -3 1.7-5.4 1.7c-1.1 0-2.1-0.1-2.8-0.1L0.7 1.4 0.7 1.4zM2.3 12.1c0.4 0.1 1 0.1 1.6 0.1C7.2 12.2 9 10.3 9 7c0-2.9-1.6-4.7-4.9-4.7 -0.8 0-1.4 0.1-1.8 0.2V12.1z"/><path class="st1" d="M14.5 9.3c0 2.1 1.4 3 3 3 1.1 0 1.8-0.2 2.4-0.5l0.3 1.1c-0.6 0.3-1.5 0.5-2.9 0.5 -2.7 0-4.3-1.8-4.3-4.4s1.5-4.7 4.1-4.7c2.8 0 3.6 2.5 3.6 4.1 0 0.3 0 0.6-0.1 0.7h-6.1V9.3zM19.1 8.1c0-1-0.4-2.6-2.2-2.6 -1.6 0-2.3 1.5-2.4 2.6H19.1z"/><path class="st1" d="M23.3 11.7c0.5 0.3 1.3 0.6 2.1 0.6 1.2 0 1.7-0.6 1.7-1.3 0-0.8-0.5-1.2-1.6-1.6C23.9 8.9 23.2 8 23.2 7c0-1.4 1.1-2.6 3-2.6 0.9 0 1.7 0.3 2.1 0.5l-0.4 1.2c-0.3-0.2-1-0.5-1.8-0.5 -0.9 0-1.5 0.5-1.5 1.2s0.5 1 1.7 1.5c1.5 0.6 2.3 1.3 2.3 2.6 0 1.5-1.2 2.6-3.3 2.6 -1 0-1.8-0.2-2.4-0.6L23.3 11.7z"/><path class="st1" d="M33.3 2.2c0 0.5-0.4 1-1 1 -0.6 0-1-0.4-1-1s0.4-1 1-1C32.9 1.2 33.3 1.6 33.3 2.2zM31.6 13.3V4.6h1.6v8.7C33.2 13.3 31.6 13.3 31.6 13.3z"/><path class="st1" d="M44.2 4.6c0 0.6-0.1 1.3-0.1 2.4v5.1c0 2-0.4 3.2-1.2 4 -0.8 0.8-2.1 1-3.2 1 -1 0-2.2-0.3-2.9-0.7l0.4-1.2c0.6 0.4 1.5 0.7 2.6 0.7 1.6 0 2.8-0.8 2.8-3v-1l0 0c-0.5 0.8-1.4 1.5-2.8 1.5 -2.2 0-3.7-1.8-3.7-4.2 0-3 1.9-4.6 3.9-4.6 1.5 0 2.3 0.8 2.7 1.5l0 0 0.1-1.3h1.4V4.6zM42.5 8.1c0-0.3 0-0.5-0.1-0.7 -0.3-0.9-1.1-1.7-2.2-1.7 -1.5 0-2.6 1.3-2.6 3.3 0 1.7 0.9 3.1 2.6 3.1 1 0 1.9-0.6 2.2-1.6 0.1-0.3 0.1-0.6 0.1-0.8V8.1z"/><path class="st1" d="M47.5 7c0-0.9 0-1.6-0.1-2.4h1.4L48.9 6l0 0c0.4-0.8 1.4-1.6 2.9-1.6 1.2 0 3.1 0.7 3.1 3.7v5.2h-1.6v-5c0-1.4-0.5-2.6-2-2.6 -1 0-1.9 0.7-2.1 1.6 -0.1 0.2-0.1 0.5-0.1 0.7v5.2h-1.6C47.5 13.2 47.5 7 47.5 7z"/><path class="st1" d="M59.3 9.3c0 2.1 1.4 3 3 3 1.1 0 1.8-0.2 2.4-0.5L65 13c-0.6 0.3-1.5 0.5-2.9 0.5 -2.7 0-4.3-1.8-4.3-4.4s1.5-4.7 4.1-4.7c2.8 0 3.6 2.5 3.6 4.1 0 0.3 0 0.6-0.1 0.7h-6.1V9.3zM63.9 8.1c0-1-0.4-2.6-2.2-2.6 -1.6 0-2.3 1.5-2.4 2.6H63.9z"/><path class="st1" d="M75.9 0.5V11c0 0.8 0 1.7 0.1 2.3h-1.4l-0.1-1.5 0 0c-0.5 1-1.5 1.7-3 1.7 -2.1 0-3.7-1.8-3.7-4.4 0-2.9 1.8-4.7 3.9-4.7 1.3 0 2.2 0.6 2.6 1.3l0 0V0.5H75.9zM74.3 8.2c0-0.2 0-0.5-0.1-0.7 -0.2-1-1.1-1.8-2.3-1.8 -1.6 0-2.6 1.4-2.6 3.4 0 1.8 0.9 3.2 2.6 3.2 1.1 0 2-0.7 2.3-1.9 0.1-0.2 0.1-0.4 0.1-0.7V8.2z"/><path class="st1" d="M84.3 13.3V5.8H83V4.6h1.2V4.2c0-1.2 0.3-2.3 1-3 0.6-0.6 1.4-0.8 2.1-0.8 0.6 0 1 0.1 1.3 0.3l-0.2 1.2c-0.2-0.1-0.6-0.2-1-0.2 -1.3 0-1.7 1.2-1.7 2.5v0.5h2.1v1.2h-2.1v7.5L84.3 13.3 84.3 13.3z"/><path class="st1" d="M97.9 8.9c0 3.2-2.2 4.6-4.3 4.6 -2.4 0-4.2-1.7-4.2-4.5 0-2.9 1.9-4.6 4.3-4.6C96.2 4.4 97.9 6.2 97.9 8.9zM91 9c0 1.9 1.1 3.3 2.6 3.3s2.6-1.4 2.6-3.4c0-1.5-0.7-3.3-2.6-3.3S91 7.3 91 9z"/><path class="st1" d="M100.8 7.3c0-1 0-1.9-0.1-2.7h1.4l0.1 1.7h0.1c0.4-1.2 1.3-1.9 2.4-1.9 0.2 0 0.3 0 0.5 0.1V6c-0.2 0-0.3-0.1-0.5-0.1 -1.1 0-1.9 0.8-2.1 2 0 0.2-0.1 0.5-0.1 0.7v4.6h-1.6V7.3H100.8z"/><path class="st1" d="M0.5 31.4c0.7 0.4 1.7 0.8 2.8 0.8 1.6 0 2.5-0.8 2.5-2.1 0-1.1-0.6-1.8-2.3-2.4 -2-0.7-3.2-1.7-3.2-3.4 0-1.9 1.6-3.3 3.9-3.3 1.2 0 2.1 0.3 2.7 0.6l-0.4 1.3c-0.4-0.2-1.2-0.6-2.3-0.6 -1.7 0-2.3 1-2.3 1.8 0 1.1 0.7 1.7 2.4 2.3 2.1 0.8 3.1 1.8 3.1 3.6 0 1.9-1.4 3.5-4.2 3.5 -1.2 0-2.4-0.3-3.1-0.8L0.5 31.4z"/><path class="st1" d="M10.4 27c0-0.9 0-1.6-0.1-2.4h1.4l0.1 1.4h0.1c0.5-0.8 1.3-1.6 2.7-1.6 1.2 0 2.1 0.7 2.5 1.7l0 0c0.3-0.5 0.6-0.9 1-1.1 0.5-0.4 1.1-0.6 1.9-0.6 1.2 0 2.9 0.8 2.9 3.8v5.1h-1.5v-4.9c0-1.7-0.6-2.7-1.9-2.7 -0.9 0-1.6 0.7-1.9 1.4 -0.1 0.2-0.1 0.5-0.1 0.8v5.4H16v-5.2c0-1.4-0.6-2.4-1.8-2.4 -1 0-1.7 0.8-2 1.6C12 27.5 12 27.8 12 28.1v5.3h-1.5V27H10.4z"/><path class="st1" d="M31.2 33.3L31 32.2l0 0c-0.5 0.7-1.4 1.3-2.7 1.3 -1.8 0-2.7-1.2-2.7-2.5 0-2.1 1.9-3.3 5.2-3.2v-0.2c0-0.7-0.2-2-2-2 -0.8 0-1.7 0.3-2.3 0.6l-0.4-1c0.7-0.5 1.8-0.8 2.9-0.8 2.7 0 3.3 1.8 3.3 3.6v3.3c0 0.8 0 1.5 0.1 2.1L31.2 33.3 31.2 33.3zM30.9 28.9c-1.7 0-3.7 0.3-3.7 2 0 1 0.7 1.5 1.5 1.5 1.1 0 1.9-0.7 2.1-1.5 0.1-0.2 0.1-0.3 0.1-0.5V28.9z"/><path class="st1" d="M35.9 20.5h1.6v12.8h-1.6V20.5z"/><path class="st1" d="M41.1 20.5h1.6v12.8h-1.6V20.5z"/><path class="st1" d="M51 21.4c0.7-0.1 1.8-0.3 2.9-0.3 1.6 0 2.6 0.3 3.3 0.9 0.6 0.5 1 1.2 1 2.1 0 1.2-0.8 2.2-2.1 2.7l0 0c1.2 0.3 2.5 1.2 2.5 3 0 1-0.4 1.8-1 2.4 -0.8 0.8-2.2 1.1-4.2 1.1 -1.1 0-1.9-0.1-2.4-0.1V21.4zM52.5 26.3H54c1.7 0 2.6-0.9 2.6-2 0-1.4-1.1-2-2.7-2 -0.7 0-1.1 0.1-1.4 0.1C52.5 22.4 52.5 26.3 52.5 26.3zM52.5 32.1c0.3 0.1 0.8 0.1 1.3 0.1 1.6 0 3.1-0.6 3.1-2.4 0-1.7-1.4-2.3-3.1-2.3h-1.3V32.1z"/><path class="st1" d="M68.9 31c0 0.9 0 1.7 0.1 2.4h-1.4L67.5 32l0 0c-0.4 0.7-1.3 1.6-2.9 1.6 -1.4 0-3-0.8-3-3.8v-5.1h1.6v4.8c0 1.7 0.5 2.8 1.9 2.8 1.1 0 1.8-0.7 2.1-1.4 0.1-0.2 0.1-0.5 0.1-0.8v-5.3h1.6C68.9 24.8 68.9 31 68.9 31z"/><path class="st1" d="M72.2 31.7c0.5 0.3 1.3 0.6 2.1 0.6 1.2 0 1.7-0.6 1.7-1.3 0-0.8-0.4-1.2-1.6-1.6C72.8 28.9 72 28 72 27c0-1.4 1.1-2.6 3-2.6 0.9 0 1.7 0.3 2.1 0.5l-0.4 1.2c-0.3-0.2-1-0.5-1.8-0.5 -0.9 0-1.5 0.5-1.5 1.2s0.5 1 1.7 1.5c1.5 0.6 2.3 1.3 2.3 2.6 0 1.5-1.2 2.6-3.3 2.6 -1 0-1.8-0.2-2.4-0.6L72.2 31.7z"/><path class="st1" d="M82.2 22.2c0 0.5-0.4 1-1 1s-1-0.4-1-1 0.4-1 1-1C81.8 21.2 82.2 21.6 82.2 22.2zM80.4 33.3v-8.7H82v8.7H80.4z"/><path class="st1" d="M85.5 27c0-0.9 0-1.6-0.1-2.4h1.4l0.1 1.4 0 0c0.4-0.8 1.4-1.6 2.9-1.6 1.2 0 3.1 0.7 3.1 3.7v5.2h-1.6v-5c0-1.4-0.5-2.6-2-2.6 -1 0-1.9 0.7-2.1 1.6 -0.1 0.2-0.1 0.5-0.1 0.7v5.2h-1.6C85.5 33.2 85.5 27 85.5 27z"/><path class="st1" d="M97.3 29.3c0 2.1 1.4 3 3 3 1.1 0 1.8-0.2 2.4-0.5L103 33c-0.6 0.3-1.5 0.5-2.9 0.5 -2.7 0-4.3-1.8-4.3-4.4s1.5-4.7 4.1-4.7c2.8 0 3.6 2.5 3.6 4.1 0 0.3 0 0.6-0.1 0.7L97.3 29.3 97.3 29.3zM102 28.1c0-1-0.4-2.6-2.2-2.6 -1.6 0-2.3 1.5-2.4 2.6H102z"/><path class="st1" d="M106.1 31.7c0.5 0.3 1.3 0.6 2.1 0.6 1.2 0 1.7-0.6 1.7-1.3 0-0.8-0.4-1.2-1.6-1.6 -1.6-0.6-2.3-1.4-2.3-2.5 0-1.4 1.1-2.6 3-2.6 0.9 0 1.7 0.3 2.1 0.5l-0.4 1.2c-0.3-0.2-1-0.5-1.8-0.5 -0.9 0-1.5 0.5-1.5 1.2s0.5 1 1.7 1.5c1.5 0.6 2.3 1.3 2.3 2.6 0 1.5-1.2 2.6-3.3 2.6 -1 0-1.8-0.2-2.4-0.6L106.1 31.7z"/><path class="st1" d="M114.2 31.7c0.5 0.3 1.3 0.6 2.1 0.6 1.2 0 1.7-0.6 1.7-1.3 0-0.8-0.4-1.2-1.6-1.6 -1.6-0.6-2.3-1.4-2.3-2.5 0-1.4 1.1-2.6 3-2.6 0.9 0 1.7 0.3 2.1 0.5l-0.4 1.2c-0.3-0.2-1-0.5-1.8-0.5 -0.9 0-1.5 0.5-1.5 1.2s0.5 1 1.7 1.5c1.5 0.6 2.3 1.3 2.3 2.6 0 1.5-1.2 2.6-3.3 2.6 -1 0-1.8-0.2-2.4-0.6L114.2 31.7z"/><path class="st1" d="M123.3 29.3c0 2.1 1.4 3 3 3 1.1 0 1.8-0.2 2.4-0.5L129 33c-0.6 0.3-1.5 0.5-2.9 0.5 -2.7 0-4.3-1.8-4.3-4.4s1.5-4.7 4.1-4.7c2.8 0 3.6 2.5 3.6 4.1 0 0.3 0 0.6-0.1 0.7L123.3 29.3 123.3 29.3zM127.9 28.1c0-1-0.4-2.6-2.2-2.6 -1.6 0-2.3 1.5-2.4 2.6H127.9z"/><path class="st1" d="M132.1 31.7c0.5 0.3 1.3 0.6 2.1 0.6 1.2 0 1.7-0.6 1.7-1.3 0-0.8-0.5-1.2-1.6-1.6 -1.6-0.6-2.3-1.4-2.3-2.5 0-1.4 1.1-2.6 3-2.6 0.9 0 1.7 0.3 2.1 0.5l-0.4 1.2c-0.3-0.2-1-0.5-1.8-0.5 -0.9 0-1.5 0.5-1.5 1.2s0.5 1 1.7 1.5c1.5 0.6 2.3 1.3 2.3 2.6 0 1.5-1.2 2.6-3.3 2.6 -1 0-1.8-0.2-2.4-0.6L132.1 31.7z"/><path class="st2" d="M3 41.2h2.2v7.9c0 3.3-1.6 4.5-4 4.5 -0.6 0-1.4-0.1-1.9-0.3l0.3-1.8C0 51.6 0.5 51.7 1 51.7c1.3 0 2-0.6 2-2.7V41.2z"/><path class="st2" d="M16.3 50.7c0 1 0 1.9 0.1 2.6h-1.9L14.3 52l0 0c-0.4 0.6-1.2 1.5-2.8 1.5s-3.1-1-3.1-3.8v-5.2h2.2v4.8c0 1.5 0.5 2.4 1.6 2.4 0.9 0 1.5-0.6 1.7-1.2 0.1-0.2 0.1-0.4 0.1-0.7v-5.3h2.2L16.3 50.7 16.3 50.7z"/><path class="st2" d="M19.5 51.3c0.5 0.3 1.5 0.6 2.3 0.6 1 0 1.4-0.4 1.4-1s-0.4-0.9-1.4-1.3c-1.7-0.6-2.4-1.5-2.4-2.6 0-1.5 1.3-2.8 3.3-2.8 1 0 1.8 0.3 2.3 0.5l-0.4 1.6c-0.4-0.2-1.1-0.5-1.9-0.5s-1.2 0.4-1.2 0.9c0 0.6 0.4 0.8 1.5 1.2 1.6 0.6 2.3 1.4 2.3 2.7 0 1.6-1.2 2.7-3.6 2.7 -1.1 0-2-0.3-2.7-0.6L19.5 51.3z"/><path class="st2" d="M30.6 42.1v2.5h2.1v1.7h-2.1v3.9c0 1.1 0.3 1.6 1.1 1.6 0.4 0 0.7-0.1 0.9-0.1v1.7c-0.3 0.1-0.9 0.2-1.6 0.2 -0.8 0-1.5-0.3-1.9-0.7 -0.5-0.5-0.7-1.3-0.7-2.4v-4.1h-1.3v-1.7h1.3v-2L30.6 42.1z"/><path class="st2" d="M40 41.2h2.2v10.3h5v1.9H40V41.2z"/><path class="st2" d="M52 42.1c0 0.7-0.5 1.2-1.3 1.2 -0.7 0-1.2-0.5-1.2-1.2s0.5-1.2 1.2-1.2C51.5 40.9 52 41.4 52 42.1zM49.6 53.3v-8.8h2.2v8.8H49.6z"/><path class="st2" d="M57.4 48.4L57.4 48.4c0.3-0.3 0.5-0.7 0.7-1l2.1-2.8h2.7l-3.2 3.6 3.7 5.2h-2.7l-2.5-3.9 -0.8 0.9v3h-2.2V40.5h2.2V48.4z"/><path class="st2" d="M66.7 49.6c0.1 1.6 1.3 2.3 2.7 2.3 1 0 1.8-0.1 2.4-0.4l0.3 1.5c-0.8 0.3-1.8 0.5-3.1 0.5 -2.8 0-4.5-1.7-4.5-4.4 0-2.4 1.5-4.7 4.3-4.7s3.8 2.3 3.8 4.3c0 0.4 0 0.7-0.1 0.9C72.5 49.6 66.7 49.6 66.7 49.6zM70.5 48c0-0.8-0.3-2.1-1.8-2.1 -1.4 0-1.9 1.2-2 2.1H70.5z"/><path class="st2" d="M82 53.3v-5.1l-3.8-7.1h2.5l1.5 3.1c0.4 0.9 0.7 1.6 1 2.4l0 0c0.3-0.8 0.6-1.5 1.1-2.4l1.5-3.1h2.5l-4 7v5.1L82 53.3 82 53.3z"/><path class="st2" d="M97 48.9c0 3.2-2.3 4.7-4.5 4.7 -2.5 0-4.4-1.7-4.4-4.5 0-2.9 1.9-4.6 4.5-4.6C95.3 44.4 97 46.2 97 48.9zM90.4 49c0 1.7 0.8 3 2.2 3 1.3 0 2.1-1.2 2.1-3 0-1.4-0.6-2.9-2.1-2.9C91 46 90.4 47.5 90.4 49z"/><path class="st2" d="M107.6 50.7c0 1 0 1.9 0.1 2.6h-1.9l-0.1-1.3 0 0c-0.4 0.6-1.2 1.5-2.8 1.5 -1.6 0-3.1-1-3.1-3.8v-5.2h2.2v4.8c0 1.5 0.5 2.4 1.6 2.4 0.9 0 1.5-0.6 1.7-1.2 0.1-0.2 0.1-0.4 0.1-0.7v-5.3h2.2L107.6 50.7 107.6 50.7z"/><path class="st2" d="M110.9 47.4c0-1.2 0-2-0.1-2.8h1.9l0.1 1.7h0.1c0.4-1.2 1.5-1.9 2.4-1.9 0.2 0 0.3 0 0.5 0.1v2.1c-0.2 0-0.4-0.1-0.6-0.1 -1.1 0-1.8 0.7-2 1.7 0 0.2-0.1 0.4-0.1 0.7v4.5h-2.2C110.9 53.4 110.9 47.4 110.9 47.4z"/><path class="st2" d="M118.1 51.3c0.5 0.3 1.5 0.6 2.3 0.6 1 0 1.4-0.4 1.4-1s-0.4-0.9-1.4-1.3c-1.7-0.6-2.4-1.5-2.4-2.6 0-1.5 1.3-2.8 3.3-2.8 1 0 1.8 0.3 2.3 0.5l-0.4 1.6c-0.4-0.2-1.1-0.5-1.9-0.5s-1.2 0.4-1.2 0.9c0 0.6 0.4 0.8 1.5 1.2 1.6 0.6 2.3 1.4 2.3 2.7 0 1.6-1.2 2.7-3.6 2.7 -1.1 0-2-0.3-2.7-0.6L118.1 51.3z"/></svg>