<svg xmlns="http://www.w3.org/2000/svg" width="275" height="9" viewBox="0 0 275 9" preserveAspectRatio="xMinYMin"><style type="text/css">  
	.st0{display:none;}
	.st1{display:inline;fill:#444854;}
	.st2{font-family:&#39;ArialMT&#39;;}
	.st3{font-size:9px;}
	.st4{fill:#444854;}
</style><g class="st0"><text transform="matrix(1 0 0 1 0 7.7236)" class="st1 st2 st3">  Earn reward points for gift cards, cash back, travel rewards and more</text></g><path class="st4" d="M0 6.6V0.1h4.7v0.8H0.9v2h3.6v0.8H0.9v2.2h4v0.8H0V6.6z"/><path class="st4" d="M8.9 6C8.6 6.2 8.4 6.4 8.1 6.5 7.8 6.6 7.5 6.7 7.2 6.7 6.7 6.7 6.3 6.5 6 6.3 5.8 6 5.6 5.7 5.6 5.3c0-0.2 0.1-0.4 0.2-0.6C5.9 4.5 6 4.4 6.2 4.2S6.5 4 6.8 4C7 4 7.2 3.9 7.5 3.9c0.6-0.1 1.1-0.2 1.4-0.3 0-0.1 0-0.2 0-0.2 0-0.3-0.1-0.5-0.2-0.7 -0.3-0.2-0.6-0.3-1-0.3 -0.4 0-0.6 0.1-0.8 0.2S6.6 3 6.5 3.3L5.8 3.2C5.9 2.9 6 2.6 6.1 2.4 6.3 2.2 6.5 2 6.8 1.9c0.3-0.1 0.7-0.2 1.1-0.2s0.7 0 1 0.1S9.3 2 9.4 2.2c0.1 0.1 0.2 0.3 0.2 0.5 0 0.1 0 0.4 0 0.7v1.1c0 0.7 0 1.2 0.1 1.4 0 0.2 0.1 0.4 0.2 0.6H9.1C9 6.4 9 6.2 8.9 6zM8.9 4.2C8.6 4.3 8.1 4.4 7.6 4.5 7.2 4.6 7 4.6 6.9 4.7S6.6 4.8 6.6 4.9 6.5 5.2 6.5 5.3c0 0.2 0.1 0.4 0.2 0.5S7.1 6 7.4 6C7.7 6 8 6 8.2 5.8s0.4-0.3 0.5-0.5 0.1-0.4 0.1-0.8L8.9 4.2 8.9 4.2z"/><path class="st4" d="M10.9 6.6V1.9h0.7v0.7c0.2-0.3 0.3-0.5 0.5-0.7 0.2-0.1 0.3-0.2 0.5-0.2 0.3 0 0.5 0.1 0.8 0.3l-0.3 0.7c-0.2-0.1-0.4-0.2-0.6-0.2 -0.2 0-0.3 0.1-0.5 0.2S11.9 3 11.8 3.2c-0.1 0.3-0.1 0.6-0.1 0.9v2.4L10.9 6.6 10.9 6.6z"/><path class="st4" d="M13.9 6.6V1.9h0.7v0.7c0.3-0.5 0.8-0.8 1.5-0.8 0.3 0 0.5 0.1 0.8 0.2 0.2 0.1 0.4 0.2 0.5 0.4s0.2 0.4 0.2 0.6c0 0.1 0 0.4 0 0.8v2.9h-0.8v-3c0-0.3 0-0.6-0.1-0.7s-0.2-0.3-0.3-0.4c-0.2-0.1-0.3-0.1-0.6-0.1 -0.3 0-0.6 0.1-0.9 0.3S14.7 3.4 14.7 4v2.5L13.9 6.6 13.9 6.6z"/><path class="st4" d="M21.4 6.6V1.9h0.7v0.7c0.2-0.3 0.3-0.5 0.5-0.7 0.2-0.1 0.3-0.2 0.5-0.2 0.3 0 0.5 0.1 0.8 0.3l-0.3 0.7c-0.2-0.1-0.4-0.2-0.6-0.2s-0.3 0.1-0.5 0.2S22.4 3 22.3 3.2c-0.1 0.3-0.1 0.6-0.1 0.9v2.4L21.4 6.6 21.4 6.6z"/><path class="st4" d="M27.6 5l0.8 0.1C28.3 5.6 28 6 27.7 6.3s-0.8 0.4-1.3 0.4c-0.7 0-1.2-0.2-1.6-0.6s-0.6-1-0.6-1.8 0.2-1.4 0.6-1.8 0.9-0.7 1.6-0.7c0.6 0 1.1 0.2 1.5 0.6s0.6 1 0.6 1.8c0 0 0 0.1 0 0.2H25c0 0.5 0.2 0.9 0.4 1.2C25.6 5.9 26 6 26.4 6c0.3 0 0.5-0.1 0.7-0.2S27.5 5.4 27.6 5zM25 3.8h2.6c0-0.4-0.1-0.7-0.3-0.9 -0.3-0.3-0.6-0.5-1-0.5s-0.7 0.1-0.9 0.4S25 3.4 25 3.8z"/><path class="st4" d="M30.3 6.6l-1.4-4.7h0.8l0.7 2.7 0.3 1c0 0 0.1-0.4 0.2-1l0.7-2.7h0.8l0.7 2.7 0.2 0.9 0.3-0.9 0.8-2.7h0.8l-1.5 4.7H33l-0.7-2.8L32 3l-0.9 3.6H30.3z"/><path class="st4" d="M38.9 6c-0.3 0.2-0.6 0.4-0.8 0.5 -0.3 0.1-0.6 0.2-0.9 0.2 -0.5 0-0.9-0.1-1.2-0.4 -0.3-0.2-0.4-0.6-0.4-1 0-0.2 0.1-0.4 0.2-0.6 0.1-0.2 0.2-0.3 0.4-0.5S36.5 4 36.8 4c0.2 0 0.4-0.1 0.7-0.1 0.6-0.1 1.1-0.2 1.4-0.3 0-0.1 0-0.2 0-0.2 0-0.3-0.1-0.5-0.2-0.7 -0.2-0.2-0.5-0.3-0.9-0.3S37.2 2.5 37 2.6 36.6 3 36.5 3.3l-0.8-0.1c0.1-0.3 0.2-0.6 0.3-0.8 0.2-0.2 0.4-0.4 0.7-0.5 0.3-0.1 0.7-0.2 1.1-0.2 0.4 0 0.7 0 1 0.1s0.4 0.2 0.5 0.4c0.1 0.1 0.2 0.3 0.2 0.5 0 0.1 0 0.4 0 0.7v1.1c0 0.7 0 1.2 0.1 1.4 0 0.2 0.1 0.4 0.2 0.6H39C39 6.4 39 6.2 38.9 6zM38.9 4.2c-0.3 0.1-0.7 0.2-1.3 0.3 -0.3 0-0.6 0.1-0.7 0.2S36.7 4.8 36.6 5s-0.1 0.2-0.1 0.4c0 0.2 0.1 0.4 0.2 0.5S37.1 6 37.4 6c0.3 0 0.6 0 0.8-0.2s0.4-0.3 0.5-0.5 0.1-0.4 0.1-0.8V4.2H38.9z"/><path class="st4" d="M40.9 6.6V1.9h0.7v0.7C41.8 2.3 42 2 42.1 1.9c0.2-0.1 0.3-0.2 0.5-0.2 0.3 0 0.5 0.1 0.8 0.3l-0.3 0.7c-0.2-0.1-0.4-0.2-0.6-0.2 -0.2 0-0.3 0.1-0.5 0.2S41.9 3 41.8 3.2c-0.1 0.3-0.1 0.6-0.1 0.9v2.4L40.9 6.6 40.9 6.6z"/><path class="st4" d="M46.9 6.6V6c-0.3 0.5-0.7 0.7-1.3 0.7 -0.4 0-0.7-0.1-1-0.3 -0.3-0.2-0.6-0.5-0.7-0.9 -0.2-0.4-0.3-0.8-0.3-1.3s0.1-0.9 0.2-1.3 0.4-0.7 0.7-0.9 0.7-0.3 1-0.3 0.5 0.1 0.8 0.2c0.2 0.1 0.4 0.3 0.5 0.5V0.1h0.8v6.4L46.9 6.6 46.9 6.6zM44.4 4.2c0 0.6 0.1 1 0.4 1.3C45.1 5.9 45.4 6 45.7 6s0.6-0.1 0.9-0.4C46.8 5.3 47 4.9 47 4.3s-0.1-1.1-0.4-1.4S46 2.4 45.7 2.4c-0.4 0-0.6 0.1-0.9 0.4C44.5 3.2 44.4 3.6 44.4 4.2z"/><path class="st4" d="M51.4 8.3V1.9h0.7v0.6c0.2-0.2 0.4-0.4 0.6-0.5 0.2-0.1 0.5-0.2 0.8-0.2 0.4 0 0.8 0.1 1.1 0.3s0.5 0.5 0.7 0.9 0.2 0.8 0.2 1.2c0 0.5-0.1 0.9-0.3 1.3s-0.4 0.7-0.7 0.9 -0.7 0.3-1 0.3S53 6.6 52.8 6.5s-0.4-0.3-0.5-0.4v2.3h-0.9V8.3zM52.1 4.2c0 0.6 0.1 1 0.4 1.3S53 6 53.4 6s0.7-0.1 0.9-0.4 0.4-0.8 0.4-1.4 -0.1-1-0.4-1.3c-0.2-0.3-0.5-0.4-0.9-0.4 -0.3 0-0.6 0.2-0.9 0.5C52.2 3.2 52.1 3.6 52.1 4.2z"/><path class="st4" d="M56.1 4.2c0-0.9 0.2-1.5 0.7-1.9 0.4-0.3 0.9-0.5 1.5-0.5s1.2 0.2 1.6 0.6 0.6 1 0.6 1.7c0 0.6-0.1 1.1-0.3 1.4s-0.4 0.6-0.8 0.8c-0.3 0.2-0.7 0.3-1.1 0.3 -0.7 0-1.2-0.2-1.6-0.6C56.3 5.6 56.1 5 56.1 4.2zM56.9 4.2c0 0.6 0.1 1 0.4 1.3 0.3 0.3 0.6 0.4 1 0.4s0.7-0.1 1-0.4 0.4-0.8 0.4-1.4 -0.1-1-0.4-1.3c-0.3-0.3-0.6-0.4-1-0.4s-0.7 0.1-1 0.4S56.9 3.6 56.9 4.2z"/><path class="st4" d="M61.4 1V0.1h0.8V1H61.4zM61.4 6.6V1.9h0.8v4.7H61.4z"/><path class="st4" d="M63.4 6.6V1.9h0.7v0.7C64.5 2 65 1.8 65.6 1.8c0.3 0 0.5 0.1 0.8 0.2 0.2 0.1 0.4 0.2 0.5 0.4s0.2 0.4 0.2 0.6c0 0.1 0 0.4 0 0.8v2.9h-0.8v-3c0-0.3 0-0.6-0.1-0.7s0-0.3-0.2-0.4c-0.2-0.1-0.3-0.1-0.6-0.1 -0.3 0-0.6 0.1-0.9 0.3S64.2 3.4 64.2 4v2.5L63.4 6.6 63.4 6.6z"/><path class="st4" d="M70.1 5.8l0.1 0.7c-0.2 0-0.4 0.1-0.6 0.1 -0.3 0-0.5 0-0.7-0.1s-0.3-0.2-0.3-0.4 -0.1-0.5-0.1-0.9V2.5H68V1.9h0.6V0.7l0.8-0.5v1.6h0.8v0.6h-0.8v2.7c0 0.2 0 0.4 0 0.4s0.1 0.1 0.1 0.2c0.1 0 0.2 0.1 0.3 0.1C69.9 5.9 70 5.9 70.1 5.8z"/><path class="st4" d="M70.6 5.2L71.4 5c0 0.3 0.2 0.6 0.4 0.7C72 5.9 72.2 6 72.6 6s0.6-0.1 0.8-0.2 0.3-0.3 0.3-0.5S73.6 5 73.5 4.9s-0.4-0.2-0.8-0.3c-0.6-0.1-1-0.3-1.2-0.4S71.1 3.9 71 3.8c-0.1-0.2-0.2-0.4-0.2-0.6 0-0.2 0-0.4 0.1-0.6 0.1-0.2 0.2-0.3 0.4-0.4C71.4 2.1 71.6 2 71.8 2s0.4-0.1 0.7-0.1c0.4 0 0.7 0.1 1 0.2C73.7 2 73.9 2.2 74 2.4s0.2 0.4 0.3 0.7l-0.8 0.1c0-0.2-0.1-0.4-0.3-0.6 -0.2-0.1-0.4-0.2-0.7-0.2 -0.4 0-0.6 0.1-0.8 0.2S71.5 2.9 71.5 3s0 0.2 0.1 0.3 0.2 0.2 0.3 0.2c0.1 0 0.3 0.1 0.7 0.2 0.6 0.1 0.9 0.3 1.2 0.4 0.2 0.1 0.4 0.2 0.5 0.4s0.2 0.4 0.2 0.7c0 0.3-0.1 0.5-0.2 0.7 -0.2 0.2-0.4 0.4-0.7 0.5 -0.3 0.1-0.6 0.2-1 0.2 -0.6 0-1.1-0.1-1.4-0.4C70.9 6 70.7 5.7 70.6 5.2z"/><path class="st4" d="M78.1 6.6V2.5h-0.7V1.9h0.7V1.4c0-0.3 0-0.5 0.1-0.7s0.2-0.4 0.4-0.5S79.1 0 79.4 0c0.2 0 0.5 0 0.7 0.1L80 0.8c-0.2 0-0.3 0-0.5 0S79.1 0.9 79 1s-0.1 0.3-0.1 0.6V2h0.9v0.6h-0.9v4.1L78.1 6.6 78.1 6.6z"/><path class="st4" d="M80.1 4.2c0-0.9 0.2-1.5 0.7-1.9 0.4-0.3 0.9-0.5 1.5-0.5s1.2 0.2 1.6 0.6 0.6 1 0.6 1.7c0 0.6-0.1 1.1-0.3 1.4 -0.2 0.3-0.4 0.6-0.8 0.8 -0.3 0.2-0.7 0.3-1.1 0.3 -0.7 0-1.2-0.2-1.6-0.6C80.3 5.6 80.1 5 80.1 4.2zM80.9 4.2c0 0.6 0.1 1 0.4 1.3s0.6 0.4 1 0.4 0.7-0.1 1-0.4 0.4-0.8 0.4-1.4 -0.1-1-0.4-1.3 -0.6-0.4-1-0.4 -0.7 0.1-1 0.4S80.9 3.6 80.9 4.2z"/><path class="st4" d="M85.4 6.6V1.9h0.7v0.7c0.2-0.3 0.3-0.5 0.5-0.7 0.2-0.1 0.3-0.2 0.5-0.2 0.3 0 0.5 0.1 0.8 0.3l-0.3 0.7c-0.2-0.1-0.4-0.2-0.6-0.2s-0.3 0.1-0.5 0.2S86.4 3 86.3 3.2c-0.1 0.3-0.1 0.6-0.1 0.9v2.4L85.4 6.6 85.4 6.6z"/><path class="st4" d="M90.8 6.9L91.6 7c0 0.2 0.1 0.4 0.3 0.5 0.2 0.1 0.5 0.2 0.8 0.2 0.4 0 0.6-0.1 0.8-0.2s0.3-0.4 0.4-0.6c0-0.2 0.1-0.5 0.1-1 -0.3 0.4-0.8 0.6-1.3 0.6 -0.6 0-1.1-0.2-1.5-0.7s-0.5-1-0.5-1.7c0-0.4 0.1-0.9 0.2-1.2 0.2-0.4 0.4-0.7 0.7-0.9s0.7-0.3 1.1-0.3c0.6 0 1 0.2 1.4 0.7V1.9h0.7v4c0 0.7-0.1 1.2-0.2 1.5 -0.1 0.3-0.4 0.5-0.7 0.7 -0.3 0.2-0.7 0.3-1.2 0.3 -0.6 0-1-0.1-1.3-0.4C90.9 7.8 90.8 7.4 90.8 6.9zM91.4 4.1c0 0.6 0.1 1.1 0.4 1.3s0.5 0.4 0.9 0.4 0.7-0.1 0.9-0.4S94 4.8 94 4.2s-0.1-1-0.4-1.3S93 2.5 92.7 2.5c-0.4 0-0.7 0.1-0.9 0.4C91.6 3.1 91.4 3.6 91.4 4.1z"/><path class="st4" d="M95.9 1V0.1h0.8V1H95.9zM95.9 6.6V1.9h0.8v4.7H95.9z"/><path class="st4" d="M98.1 6.6V2.5h-0.7V1.9h0.7V1.4c0-0.3 0-0.5 0.1-0.7s0.2-0.4 0.4-0.5S99.1 0 99.4 0c0.2 0 0.5 0 0.7 0.1L100 0.8c-0.2 0-0.3 0-0.5 0S99.1 0.9 99 1s-0.1 0.3-0.1 0.6V2h0.9v0.6h-0.9v4.1L98.1 6.6 98.1 6.6z"/><path class="st4" d="M102.2 5.8l0.1 0.7c-0.2 0-0.4 0.1-0.6 0.1 -0.3 0-0.5 0-0.7-0.1s-0.3-0.2-0.3-0.4 -0.1-0.5-0.1-0.9V2.5H100V1.9h0.6V0.7l0.8-0.5v1.6h0.8v0.6h-0.8v2.7c0 0.2 0 0.4 0 0.4s0.1 0.1 0.1 0.2c0.1 0 0.2 0.1 0.3 0.1C101.9 5.9 102 5.9 102.2 5.8z"/><path class="st4" d="M108.5 4.8l0.8 0.1c-0.1 0.5-0.3 1-0.7 1.3 -0.4 0.3-0.8 0.5-1.3 0.5 -0.6 0-1.2-0.2-1.5-0.6 -0.4-0.4-0.6-1-0.6-1.8 0-0.5 0.1-0.9 0.3-1.3s0.4-0.7 0.8-0.9c0.3-0.2 0.7-0.3 1.1-0.3 0.5 0 0.9 0.1 1.2 0.4s0.5 0.6 0.6 1.1l-0.8 0.1c-0.1-0.3-0.2-0.5-0.4-0.7s-0.4-0.2-0.7-0.2c-0.4 0-0.7 0.1-1 0.4 -0.2 0.3-0.4 0.7-0.4 1.4 0 0.6 0.1 1.1 0.4 1.4 0.2 0.3 0.6 0.4 0.9 0.4s0.6-0.1 0.8-0.3C108.3 5.5 108.4 5.2 108.5 4.8z"/><path class="st4" d="M113 6c-0.3 0.2-0.6 0.4-0.8 0.5 -0.3 0.1-0.6 0.2-0.9 0.2 -0.5 0-0.9-0.1-1.2-0.4 -0.3-0.2-0.4-0.6-0.4-1 0-0.2 0.1-0.4 0.2-0.6s0.2-0.3 0.4-0.5 0.4-0.2 0.6-0.3c0.2 0 0.4-0.1 0.7-0.1 0.6-0.1 1.1-0.2 1.4-0.3 0-0.1 0-0.2 0-0.2 0-0.3-0.1-0.5-0.2-0.7 -0.2-0.2-0.5-0.3-0.9-0.3s-0.6 0.1-0.8 0.2 -0.3 0.4-0.4 0.7l-0.8-0.1c0.1-0.3 0.2-0.6 0.3-0.8 0.2-0.2 0.4-0.4 0.7-0.5 0.3-0.1 0.7-0.2 1.1-0.2s0.7 0 1 0.1 0.4 0.2 0.5 0.4c0.1 0.1 0.2 0.3 0.2 0.5 0 0.1 0 0.4 0 0.7v1.1c0 0.7 0 1.2 0.1 1.4 0 0.2 0.1 0.4 0.2 0.6h-0.8C113.1 6.4 113 6.2 113 6zM112.9 4.2c-0.3 0.1-0.7 0.2-1.3 0.3 -0.3 0-0.6 0.1-0.7 0.2s-0.2 0.1-0.3 0.3 -0.1 0.2-0.1 0.4c0 0.2 0.1 0.4 0.2 0.5s0.4 0.2 0.7 0.2c0.3 0 0.6-0.1 0.8-0.2s0.4-0.3 0.5-0.5 0.1-0.4 0.1-0.8V4.2H112.9z"/><path class="st4" d="M114.9 6.6V1.9h0.7v0.7c0.2-0.3 0.3-0.5 0.5-0.7 0.2-0.1 0.3-0.2 0.5-0.2 0.3 0 0.5 0.1 0.8 0.3l-0.3 0.7c-0.2-0.1-0.4-0.2-0.6-0.2s-0.3 0.1-0.5 0.2 -0.2 0.2-0.3 0.4c-0.1 0.3-0.1 0.6-0.1 0.9v2.4h-0.7V6.6z"/><path class="st4" d="M121 6.6V6c-0.3 0.5-0.7 0.7-1.3 0.7 -0.4 0-0.7-0.1-1-0.3 -0.3-0.2-0.6-0.5-0.7-0.9 -0.2-0.4-0.3-0.8-0.3-1.3s0.1-0.9 0.2-1.3 0.4-0.7 0.7-0.9 0.7-0.3 1-0.3 0.5 0.1 0.8 0.2c0.2 0.1 0.4 0.3 0.5 0.5V0.1h0.8v6.4L121 6.6 121 6.6zM118.5 4.2c0 0.6 0.1 1 0.4 1.3s0.5 0.4 0.9 0.4c0.3 0 0.6-0.1 0.9-0.4 0.2-0.3 0.4-0.7 0.4-1.3s-0.1-1.1-0.4-1.4 -0.5-0.4-0.9-0.4 -0.6 0.1-0.9 0.4C118.6 3.2 118.5 3.6 118.5 4.2z"/><path class="st4" d="M122.6 5.2l0.8-0.1c0 0.3 0.2 0.6 0.4 0.7 0.2 0.2 0.5 0.3 0.8 0.3 0.4 0 0.6-0.1 0.8-0.2s0.3-0.3 0.3-0.5 -0.1-0.3-0.2-0.4 -0.4-0.2-0.8-0.3c-0.6-0.1-1-0.3-1.2-0.4S123.1 4 123 3.9c-0.1-0.2-0.2-0.4-0.2-0.6 0-0.2 0-0.4 0.1-0.6 0.1-0.2 0.2-0.3 0.4-0.4 0.1-0.1 0.3-0.2 0.5-0.2s0.4-0.1 0.7-0.1c0.4 0 0.7 0.1 1 0.2s0.5 0.2 0.6 0.4 0.2 0.4 0.3 0.7l-0.8 0.1c0-0.2-0.1-0.4-0.3-0.6 -0.2-0.1-0.4-0.2-0.7-0.2 -0.4 0-0.6 0.1-0.8 0.2s-0.2 0.3-0.2 0.4c0 0.1 0 0.2 0.1 0.3s0.2 0.2 0.3 0.2c0.1 0 0.3 0.1 0.7 0.2 0.6 0.1 0.9 0.3 1.2 0.4 0.2 0.1 0.4 0.2 0.5 0.4s0.2 0.4 0.2 0.7c0 0.3-0.1 0.5-0.2 0.7 -0.2 0.2-0.4 0.4-0.7 0.5 -0.3 0.1-0.6 0.2-1 0.2 -0.6 0-1.1-0.1-1.4-0.4C122.9 6 122.7 5.7 122.6 5.2z"/><path class="st4" d="M127.6 6.6V5.7h0.9v0.9c0 0.3-0.1 0.6-0.2 0.8s-0.3 0.4-0.6 0.5l-0.2-0.3c0.2-0.1 0.3-0.2 0.4-0.3C128 7.2 128 7 128 6.7L127.6 6.6 127.6 6.6z"/><path class="st4" d="M135.5 4.8l0.8 0.1c-0.1 0.5-0.3 1-0.7 1.3 -0.4 0.3-0.8 0.5-1.3 0.5 -0.6 0-1.2-0.2-1.5-0.6 -0.4-0.4-0.6-1-0.6-1.8 0-0.5 0.1-0.9 0.3-1.3s0.4-0.7 0.8-0.9c0.3-0.2 0.7-0.3 1.1-0.3 0.5 0 0.9 0.1 1.2 0.4s0.5 0.6 0.6 1.1l-0.8 0.1c-0.1-0.3-0.2-0.5-0.4-0.7s-0.4-0.2-0.7-0.2c-0.4 0-0.7 0.1-1 0.4 -0.2 0.3-0.4 0.7-0.4 1.4 0 0.6 0.1 1.1 0.4 1.4 0.2 0.3 0.6 0.4 0.9 0.4 0.3 0 0.6-0.1 0.8-0.3C135.3 5.5 135.4 5.2 135.5 4.8z"/><path class="st4" d="M140 6c-0.3 0.2-0.6 0.4-0.8 0.5 -0.3 0.1-0.6 0.2-0.9 0.2 -0.5 0-0.9-0.1-1.2-0.4 -0.3-0.2-0.4-0.6-0.4-1 0-0.2 0.1-0.4 0.2-0.6 0.1-0.2 0.2-0.3 0.4-0.5s0.4-0.2 0.6-0.3c0.2 0 0.4-0.1 0.7-0.1 0.6-0.1 1.1-0.2 1.4-0.3 0-0.1 0-0.2 0-0.2 0-0.3-0.1-0.5-0.2-0.7 -0.2-0.2-0.5-0.3-0.9-0.3s-0.6 0.1-0.8 0.2c-0.2 0.1-0.3 0.4-0.4 0.7l-0.8-0.1c0.1-0.3 0.2-0.6 0.3-0.8 0.2-0.2 0.4-0.4 0.7-0.5s0.7-0.2 1.1-0.2c0.4 0 0.7 0 1 0.1s0.4 0.2 0.5 0.4c0.1 0.1 0.2 0.3 0.2 0.5 0 0.1 0 0.4 0 0.7v1.1c0 0.7 0 1.2 0 1.4s0.1 0.4 0.2 0.6h-0.8C140.1 6.4 140 6.2 140 6zM139.9 4.2c-0.3 0.1-0.7 0.2-1.3 0.3 -0.3 0-0.6 0.1-0.7 0.2s-0.2 0.1-0.3 0.3c-0.1 0.1-0.1 0.2-0.1 0.4 0 0.2 0.1 0.4 0.2 0.5 0.2 0.1 0.4 0.2 0.7 0.2s0.6-0.1 0.8-0.2 0.4-0.3 0.5-0.5 0.1-0.4 0.1-0.8V4.2H139.9z"/><path class="st4" d="M141.6 5.2l0.8-0.1c0 0.3 0.2 0.6 0.4 0.7 0.2 0.2 0.5 0.3 0.8 0.3 0.4 0 0.6-0.1 0.8-0.2s0.3-0.3 0.3-0.5 -0.1-0.3-0.2-0.4c-0.1-0.1-0.4-0.2-0.8-0.3 -0.6-0.1-1-0.3-1.2-0.4S142.1 4 142 3.9c-0.1-0.2-0.2-0.4-0.2-0.6 0-0.2 0-0.4 0.1-0.6 0.1-0.2 0.2-0.3 0.4-0.4 0.1-0.1 0.3-0.2 0.5-0.2C143 2 143.2 2 143.5 2c0.4 0 0.7 0.1 1 0.2s0.5 0.2 0.6 0.4 0.2 0.4 0.3 0.7l-0.8 0.1c0-0.2-0.1-0.4-0.3-0.6 -0.2-0.1-0.4-0.2-0.7-0.2 -0.4 0-0.6 0.1-0.8 0.2s-0.2 0.3-0.2 0.4c0 0.1 0 0.2 0.1 0.3s0.2 0.2 0.3 0.2 0.3 0.1 0.7 0.2c0.6 0.1 1 0.3 1.2 0.4s0.4 0.2 0.5 0.4 0.2 0.4 0.2 0.7c0 0.3-0.1 0.5-0.2 0.7 -0.2 0.2-0.4 0.4-0.7 0.5s-0.6 0.2-1 0.2c-0.6 0-1.1-0.1-1.4-0.4C141.9 6 141.7 5.7 141.6 5.2z"/><path class="st4" d="M146.4 6.6V0.1h0.8v2.3c0.4-0.4 0.8-0.6 1.4-0.6 0.3 0 0.6 0.1 0.9 0.2 0.3 0.1 0.4 0.3 0.5 0.6 0.1 0.2 0.2 0.6 0.2 1v3h-0.8v-3c0-0.4-0.1-0.7-0.3-0.9s-0.4-0.3-0.7-0.3c-0.2 0-0.5 0.1-0.7 0.2 -0.2 0.1-0.4 0.3-0.4 0.5s-0.1 0.5-0.1 0.9v2.6H146.4z"/><path class="st4" d="M154.7 6.6H154V0.1h0.8v2.3c0.3-0.4 0.8-0.6 1.3-0.6 0.3 0 0.6 0.1 0.8 0.2 0.3 0.1 0.5 0.3 0.6 0.5 0.2 0.2 0.3 0.5 0.4 0.8 0.1 0.3 0.1 0.6 0.1 0.9 0 0.8-0.2 1.4-0.6 1.9 -0.4 0.4-0.9 0.7-1.4 0.7 -0.6 0-1-0.2-1.3-0.7L154.7 6.6 154.7 6.6zM154.7 4.2c0 0.6 0.1 1 0.2 1.2 0.2 0.4 0.6 0.6 1 0.6 0.3 0 0.6-0.1 0.9-0.5s0.4-0.7 0.4-1.3 -0.1-1.1-0.4-1.3c-0.2-0.3-0.5-0.4-0.9-0.4 -0.3 0-0.6 0.2-0.9 0.5C154.8 3.2 154.7 3.6 154.7 4.2z"/><path class="st4" d="M162 6c-0.3 0.2-0.6 0.4-0.8 0.5 -0.3 0.1-0.6 0.2-0.9 0.2 -0.5 0-0.9-0.1-1.2-0.4 -0.3-0.2-0.4-0.6-0.4-1 0-0.2 0.1-0.4 0.2-0.6 0.1-0.2 0.2-0.3 0.4-0.5 0.2-0.1 0.4-0.2 0.6-0.3 0.2 0 0.4-0.1 0.7-0.1 0.6-0.1 1.1-0.2 1.4-0.3 0-0.1 0-0.2 0-0.2 0-0.3-0.1-0.5-0.2-0.7 -0.2-0.2-0.5-0.3-0.9-0.3s-0.6 0.1-0.8 0.2c-0.2 0.1-0.3 0.4-0.4 0.7l-0.8-0.1c0.1-0.3 0.2-0.6 0.3-0.8 0.2-0.2 0.4-0.4 0.7-0.5s0.7-0.2 1.1-0.2c0.4 0 0.7 0 1 0.1s0.4 0.2 0.5 0.4c0.1 0.1 0.2 0.3 0.2 0.5 0 0.1 0 0.4 0 0.7v1.1c0 0.7 0 1.2 0 1.4s0.1 0.4 0.2 0.6h-0.8C162.1 6.4 162 6.2 162 6zM161.9 4.2c-0.3 0.1-0.7 0.2-1.3 0.3 -0.3 0-0.6 0.1-0.7 0.2s-0.2 0.1-0.3 0.3c-0.1 0.1-0.1 0.2-0.1 0.4 0 0.2 0.1 0.4 0.2 0.5 0.2 0.1 0.4 0.2 0.7 0.2s0.6-0.1 0.8-0.2 0.4-0.3 0.5-0.5 0.1-0.4 0.1-0.8V4.2H161.9z"/><path class="st4" d="M167 4.8l0.8 0.1c-0.1 0.5-0.3 1-0.7 1.3 -0.3 0.3-0.8 0.5-1.3 0.5 -0.6 0-1.2-0.2-1.5-0.6 -0.4-0.4-0.6-1-0.6-1.8 0-0.5 0.1-0.9 0.2-1.3 0.2-0.4 0.4-0.7 0.8-0.9 0.3-0.2 0.7-0.3 1.1-0.3 0.5 0 0.9 0.1 1.2 0.4s0.5 0.6 0.6 1.1l-0.8 0.1c-0.1-0.3-0.2-0.5-0.4-0.7s-0.4-0.2-0.7-0.2c-0.4 0-0.7 0.1-1 0.4 -0.2 0.3-0.4 0.7-0.4 1.4 0 0.6 0.1 1.1 0.4 1.4 0.2 0.3 0.6 0.4 0.9 0.4 0.3 0 0.6-0.1 0.8-0.3C166.8 5.5 166.9 5.2 167 4.8z"/><path class="st4" d="M168.5 6.6V0.1h0.8v3.7l1.9-1.9h1l-1.8 1.7 2 2.9h-1l-1.5-2.4 -0.6 0.5v1.9L168.5 6.6 168.5 6.6z"/><path class="st4" d="M173.2 6.6V5.7h0.9v0.9c0 0.3-0.1 0.6-0.2 0.8 -0.1 0.2-0.3 0.4-0.6 0.5l-0.2-0.3c0.2-0.1 0.3-0.2 0.4-0.3 0.1-0.1 0.1-0.3 0.1-0.6L173.2 6.6 173.2 6.6z"/><path class="st4" d="M179.7 5.8l0.1 0.7c-0.2 0-0.4 0.1-0.6 0.1 -0.3 0-0.5 0-0.7-0.1s-0.3-0.2-0.3-0.4 -0.1-0.5-0.1-0.9V2.5h-0.6V1.9h0.6V0.7l0.8-0.5v1.6h0.8v0.6h-0.8v2.7c0 0.2 0 0.4 0 0.4 0 0.1 0.1 0.1 0.1 0.2 0.1 0 0.2 0.1 0.3 0.1C179.4 5.9 179.5 5.9 179.7 5.8z"/><path class="st4" d="M180.5 6.6V1.9h0.7v0.7c0.2-0.3 0.3-0.5 0.5-0.7 0.2-0.1 0.3-0.2 0.5-0.2 0.3 0 0.5 0.1 0.8 0.3l-0.3 0.7c-0.2-0.1-0.4-0.2-0.6-0.2 -0.2 0-0.3 0.1-0.5 0.2s-0.2 0.2-0.3 0.4c-0.1 0.3-0.1 0.6-0.1 0.9v2.4h-0.7V6.6z"/><path class="st4" d="M186.5 6c-0.3 0.2-0.6 0.4-0.8 0.5 -0.3 0.1-0.6 0.2-0.9 0.2 -0.5 0-0.9-0.1-1.2-0.4 -0.3-0.2-0.4-0.6-0.4-1 0-0.2 0.1-0.4 0.2-0.6 0.1-0.2 0.2-0.3 0.4-0.5 0.2-0.1 0.4-0.2 0.6-0.3 0.2 0 0.4-0.1 0.7-0.1 0.6-0.1 1.1-0.2 1.4-0.3 0-0.1 0-0.2 0-0.2 0-0.3-0.1-0.5-0.2-0.7 -0.2-0.2-0.5-0.3-0.9-0.3s-0.6 0.1-0.8 0.2c-0.2 0.1-0.3 0.4-0.4 0.7l-0.8-0.1c0.1-0.3 0.2-0.6 0.3-0.8 0.2-0.2 0.4-0.4 0.7-0.5s0.7-0.2 1.1-0.2c0.4 0 0.7 0 1 0.1s0.4 0.2 0.5 0.4c0.1 0.1 0.2 0.3 0.2 0.5 0 0.1 0 0.4 0 0.7v1.1c0 0.7 0 1.2 0 1.4s0.1 0.4 0.2 0.6h-0.8C186.6 6.4 186.5 6.2 186.5 6zM186.4 4.2c-0.3 0.1-0.7 0.2-1.3 0.3 -0.3 0-0.6 0.1-0.7 0.2s-0.2 0.1-0.3 0.3c0 0-0.1 0.2-0.1 0.3 0 0.2 0.1 0.4 0.2 0.5C184.4 6 184.7 6 185 6s0.6-0.1 0.8-0.2 0.4-0.3 0.5-0.5 0.1-0.4 0.1-0.8L186.4 4.2 186.4 4.2z"/><path class="st4" d="M189.8 6.6L188 1.9h0.8l1 2.8c0.1 0.3 0.2 0.6 0.3 0.9 0.1-0.2 0.2-0.5 0.3-0.9l1-2.8h0.8l-1.8 4.7C190.4 6.6 189.8 6.6 189.8 6.6z"/><path class="st4" d="M196.2 5l0.8 0.1c-0.1 0.5-0.4 0.8-0.7 1.1s-0.8 0.4-1.3 0.4c-0.7 0-1.2-0.2-1.6-0.6 -0.4-0.4-0.6-1-0.6-1.8s0.2-1.4 0.6-1.8 0.9-0.7 1.6-0.7c0.6 0 1.1 0.2 1.5 0.6s0.6 1 0.6 1.8c0 0 0 0.1 0 0.2h-3.5c0 0.5 0.2 0.9 0.4 1.2 0.3 0.3 0.6 0.4 1 0.4 0.3 0 0.5-0.1 0.7-0.2C195.9 5.6 196 5.4 196.2 5zM193.6 3.8h2.6c0-0.4-0.1-0.7-0.3-0.9 -0.3-0.3-0.6-0.5-1-0.5s-0.7 0.1-0.9 0.4C193.7 3 193.6 3.4 193.6 3.8z"/><path class="st4" d="M198 6.6V0.1h0.8v6.4L198 6.6 198 6.6z"/><path class="st4" d="M202.5 6.6V1.9h0.7v0.7c0.2-0.3 0.3-0.5 0.5-0.7 0.2-0.1 0.3-0.2 0.5-0.2 0.3 0 0.5 0.1 0.8 0.3l-0.3 0.7c-0.2-0.1-0.4-0.2-0.6-0.2 -0.2 0-0.3 0.1-0.5 0.2s-0.2 0.2-0.3 0.4c-0.1 0.3-0.1 0.6-0.1 0.9v2.4h-0.7V6.6z"/><path class="st4" d="M208.7 5l0.8 0.1c-0.1 0.5-0.4 0.8-0.7 1.1s-0.8 0.4-1.3 0.4c-0.7 0-1.2-0.2-1.6-0.6 -0.4-0.4-0.6-1-0.6-1.8s0.2-1.4 0.6-1.8 0.9-0.7 1.6-0.7c0.6 0 1.1 0.2 1.5 0.6s0.6 1 0.6 1.8c0 0 0 0.1 0 0.2H206c0 0.5 0.2 0.9 0.4 1.2 0.3 0.3 0.6 0.4 1 0.4 0.3 0 0.5-0.1 0.7-0.2C208.4 5.6 208.5 5.4 208.7 5zM206.1 3.8h2.6c0-0.4-0.1-0.7-0.3-0.9 -0.3-0.3-0.6-0.5-1-0.5s-0.7 0.1-0.9 0.4C206.2 3 206.1 3.4 206.1 3.8z"/><path class="st4" d="M211.3 6.6l-1.4-4.7h0.8l0.7 2.7 0.3 1c0 0 0.1-0.4 0.2-1l0.7-2.7h0.8l0.7 2.7 0.2 0.9 0.3-0.9 0.8-2.7h0.8l-1.5 4.7H214l-0.7-2.8L213.1 3l-0.9 3.6H211.3z"/><path class="st4" d="M220 6c-0.3 0.2-0.6 0.4-0.8 0.5 -0.3 0.1-0.6 0.2-0.9 0.2 -0.5 0-0.9-0.1-1.2-0.4 -0.3-0.2-0.4-0.6-0.4-1 0-0.2 0.1-0.4 0.2-0.6 0.1-0.2 0.2-0.3 0.4-0.5 0.2-0.1 0.4-0.2 0.6-0.3 0.2 0 0.4-0.1 0.7-0.1 0.6-0.1 1.1-0.2 1.4-0.3 0-0.1 0-0.2 0-0.2 0-0.3-0.1-0.5-0.2-0.7 -0.2-0.2-0.5-0.3-0.9-0.3s-0.6 0.1-0.8 0.2c-0.2 0.1-0.3 0.4-0.4 0.7l-0.8-0.1c0.1-0.3 0.2-0.6 0.3-0.8 0.2-0.2 0.4-0.4 0.7-0.5s0.7-0.2 1.1-0.2c0.4 0 0.7 0 1 0.1s0.4 0.2 0.5 0.4c0.1 0.1 0.2 0.3 0.2 0.5 0 0.1 0 0.4 0 0.7v1.1c0 0.7 0 1.2 0 1.4s0.1 0.4 0.2 0.6h-0.8C220.1 6.4 220 6.2 220 6zM220 4.2c-0.3 0.1-0.7 0.2-1.3 0.3 -0.3 0-0.6 0.1-0.7 0.2s-0.2 0.1-0.3 0.3c-0.1 0.1-0.1 0.2-0.1 0.4 0 0.2 0.1 0.4 0.2 0.5 0.2 0.1 0.4 0.2 0.7 0.2s0.6-0.1 0.8-0.2 0.4-0.3 0.5-0.5 0.1-0.4 0.1-0.8V4.2H220z"/><path class="st4" d="M222 6.6V1.9h0.7v0.7c0.2-0.3 0.3-0.5 0.5-0.7 0.2-0.1 0.3-0.2 0.5-0.2 0.3 0 0.5 0.1 0.8 0.3l-0.3 0.7c-0.2-0.1-0.4-0.2-0.6-0.2 -0.2 0-0.3 0.1-0.5 0.2s-0.2 0.2-0.3 0.4c-0.1 0.3-0.1 0.6-0.1 0.9v2.4H222V6.6z"/><path class="st4" d="M228 6.6V6c-0.3 0.5-0.7 0.7-1.3 0.7 -0.4 0-0.7-0.1-1-0.3 -0.3-0.2-0.6-0.5-0.7-0.9 -0.2-0.4-0.3-0.8-0.3-1.3s0.1-0.9 0.2-1.3c0.2-0.4 0.4-0.7 0.7-0.9s0.7-0.3 1-0.3 0.5 0.1 0.8 0.2c0.2 0.1 0.4 0.3 0.5 0.5V0.1h0.8v6.4L228 6.6 228 6.6zM225.5 4.2c0 0.6 0.1 1 0.4 1.3 0.3 0.3 0.5 0.4 0.9 0.4 0.3 0 0.6-0.1 0.9-0.4 0.2-0.3 0.4-0.7 0.4-1.3s-0.1-1.1-0.4-1.4 -0.5-0.4-0.9-0.4 -0.6 0.1-0.9 0.4C225.6 3.2 225.5 3.6 225.5 4.2z"/><path class="st4" d="M229.7 5.2l0.8-0.1c0 0.3 0.2 0.6 0.4 0.7 0.2 0.2 0.5 0.3 0.8 0.3 0.4 0 0.6-0.1 0.8-0.2s0.3-0.3 0.3-0.5 -0.1-0.3-0.2-0.4c-0.1-0.1-0.4-0.2-0.8-0.3 -0.6-0.1-1-0.3-1.2-0.4s-0.4-0.3-0.5-0.4c-0.1-0.2-0.2-0.4-0.2-0.6 0-0.2 0-0.4 0.1-0.6 0.1-0.2 0.2-0.3 0.4-0.4 0.1-0.1 0.3-0.2 0.5-0.2 0.2-0.1 0.4-0.1 0.7-0.1 0.4 0 0.7 0.1 1 0.2s0.5 0.2 0.6 0.4 0.2 0.4 0.3 0.7l-0.8 0.1c0-0.2-0.1-0.4-0.3-0.6 -0.2-0.1-0.4-0.2-0.7-0.2 -0.4 0-0.6 0.1-0.8 0.2s-0.2 0.3-0.2 0.4c0 0.1 0 0.2 0.1 0.3s0.2 0.2 0.3 0.2 0.3 0.1 0.7 0.2c0.6 0.1 1 0.3 1.2 0.4s0.4 0.2 0.5 0.4 0.2 0.4 0.2 0.7c0 0.3-0.1 0.5-0.2 0.7 -0.2 0.2-0.4 0.4-0.7 0.5s-0.6 0.2-1 0.2c-0.6 0-1.1-0.1-1.4-0.4C230 6 229.8 5.7 229.7 5.2z"/><path class="st4" d="M240 6c-0.3 0.2-0.6 0.4-0.8 0.5 -0.3 0.1-0.6 0.2-0.9 0.2 -0.5 0-0.9-0.1-1.2-0.4 -0.3-0.2-0.4-0.6-0.4-1 0-0.2 0.1-0.4 0.2-0.6 0.1-0.2 0.2-0.3 0.4-0.5 0.2-0.1 0.4-0.2 0.6-0.3 0.2 0 0.4-0.1 0.7-0.1 0.6-0.1 1.1-0.2 1.4-0.3 0-0.1 0-0.2 0-0.2 0-0.3-0.1-0.5-0.2-0.7 -0.2-0.2-0.5-0.3-0.9-0.3s-0.6 0.1-0.8 0.2c-0.2 0.1-0.3 0.4-0.4 0.7l-0.8-0.1c0.1-0.3 0.2-0.6 0.3-0.8 0.2-0.2 0.4-0.4 0.7-0.5s0.7-0.2 1.1-0.2c0.4 0 0.7 0 1 0.1s0.4 0.2 0.5 0.4c0.1 0.1 0.2 0.3 0.2 0.5 0 0.1 0 0.4 0 0.7v1.1c0 0.7 0 1.2 0 1.4s0.1 0.4 0.2 0.6h-0.8C240.1 6.4 240 6.2 240 6zM240 4.2c-0.3 0.1-0.7 0.2-1.3 0.3 -0.3 0-0.6 0.1-0.7 0.2s-0.2 0.1-0.3 0.3c-0.1 0.1-0.1 0.2-0.1 0.4 0 0.2 0.1 0.4 0.2 0.5C238 6 238.2 6 238.5 6s0.6-0.1 0.8-0.2 0.4-0.3 0.5-0.5 0.1-0.4 0.1-0.8L240 4.2 240 4.2z"/><path class="st4" d="M242 6.6V1.9h0.7v0.7c0.3-0.5 0.8-0.8 1.5-0.8 0.3 0 0.5 0.1 0.8 0.2 0.2 0.1 0.4 0.2 0.5 0.4s0.2 0.4 0.2 0.6c0 0.1 0 0.4 0 0.8v2.9H245v-3c0-0.3 0-0.6-0.1-0.7 -0.1-0.2-0.2-0.3-0.3-0.4 -0.2-0.1-0.3-0.1-0.6-0.1s-0.6 0.1-0.9 0.3c-0.2 0.2-0.4 0.6-0.4 1.2v2.5L242 6.6 242 6.6z"/><path class="st4" d="M250 6.6V6c-0.3 0.5-0.7 0.7-1.3 0.7 -0.4 0-0.7-0.1-1-0.3 -0.3-0.2-0.6-0.5-0.7-0.9 -0.2-0.4-0.3-0.8-0.3-1.3s0.1-0.9 0.2-1.3c0.2-0.4 0.4-0.7 0.7-0.9s0.7-0.3 1-0.3 0.5 0.1 0.8 0.2c0.2 0.1 0.4 0.3 0.5 0.5V0.1h0.8v6.4L250 6.6 250 6.6zM247.5 4.2c0 0.6 0.1 1 0.4 1.3 0.3 0.3 0.5 0.4 0.9 0.4 0.3 0 0.6-0.1 0.9-0.4 0.2-0.3 0.4-0.7 0.4-1.3s-0.1-1.1-0.4-1.4 -0.5-0.4-0.9-0.4 -0.6 0.1-0.9 0.4C247.6 3.2 247.5 3.6 247.5 4.2z"/><path class="st4" d="M254.5 6.6V1.9h0.7v0.7c0.1-0.2 0.3-0.4 0.6-0.6s0.5-0.2 0.8-0.2c0.3 0 0.6 0.1 0.9 0.2 0.2 0.1 0.4 0.3 0.5 0.6 0.4-0.5 0.8-0.8 1.4-0.8 0.5 0 0.8 0.1 1.1 0.4s0.4 0.7 0.4 1.2v3.2H260v-3c0-0.3 0-0.5-0.1-0.7 -0.1-0.1-0.1-0.3-0.3-0.3s-0.3-0.1-0.5-0.1c-0.3 0-0.6 0.1-0.8 0.3 -0.2 0.2-0.3 0.6-0.3 1v2.7h-0.8v-3c0-0.4-0.1-0.6-0.2-0.8s-0.3-0.3-0.6-0.3c-0.2 0-0.4 0.1-0.6 0.2 -0.2 0.1-0.3 0.3-0.4 0.5s-0.1 0.6-0.1 1v2.4L254.5 6.6 254.5 6.6z"/><path class="st4" d="M261.7 4.2c0-0.9 0.2-1.5 0.7-1.9 0.4-0.3 0.9-0.5 1.5-0.5s1.2 0.2 1.6 0.6 0.6 1 0.6 1.7c0 0.6-0.1 1.1-0.3 1.4 -0.2 0.3-0.4 0.6-0.8 0.8 -0.3 0.2-0.7 0.3-1.1 0.3 -0.7 0-1.2-0.2-1.6-0.6C261.9 5.6 261.7 5 261.7 4.2zM262.5 4.2c0 0.6 0.1 1 0.4 1.3s0.6 0.4 1 0.4 0.7-0.1 1-0.4 0.4-0.8 0.4-1.4 -0.1-1-0.4-1.3 -0.6-0.4-1-0.4 -0.7 0.1-1 0.4S262.5 3.6 262.5 4.2z"/><path class="st4" d="M267 6.6V1.9h0.7v0.7c0.2-0.3 0.3-0.5 0.5-0.7 0.2-0.1 0.3-0.2 0.5-0.2 0.3 0 0.5 0.1 0.8 0.3l-0.3 0.7c-0.2-0.1-0.4-0.2-0.6-0.2s-0.3 0.1-0.5 0.2S268 3 267.9 3.2c-0.1 0.3-0.1 0.6-0.1 0.9v2.4L267 6.6 267 6.6z"/><path class="st4" d="M273.2 5l0.8 0.1c-0.1 0.5-0.4 0.8-0.7 1.1s-0.8 0.4-1.3 0.4c-0.7 0-1.2-0.2-1.6-0.6s-0.6-1-0.6-1.8 0.2-1.4 0.6-1.8 0.9-0.7 1.6-0.7c0.6 0 1.1 0.2 1.5 0.6s0.6 1 0.6 1.8c0 0 0 0.1 0 0.2h-3.5c0 0.5 0.2 0.9 0.4 1.2 0.3 0.3 0.6 0.4 1 0.4 0.3 0 0.5-0.1 0.7-0.2C272.9 5.6 273.1 5.4 273.2 5zM270.6 3.8h2.6c0-0.4-0.1-0.7-0.3-0.9 -0.3-0.3-0.6-0.5-1-0.5s-0.7 0.1-0.9 0.4C270.8 3 270.6 3.4 270.6 3.8z"/></svg>