
<svg xmlns="http://www.w3.org/2000/svg" width="238" height="144" viewBox="0 0 238 144" preserveAspectRatio="xMinYMin"><style type="text/css">  
	.st0{fill:#004C72;}
	.st1{fill:#444854;}
</style><path class="st0" d="M11.2 8.4c0 4.4-1.8 7.5-5.4 7.5 -3.7 0-5.3-3.3-5.3-7.4 0-4.1 1.8-7.4 5.5-7.4C9.7 1.1 11.2 4.5 11.2 8.4zM3.8 8.5c0 3.3 0.8 4.8 2.1 4.8 1.3 0 2-1.6 2-4.9 0-3.2-0.7-4.8-2-4.8C4.6 3.6 3.7 5.2 3.8 8.5z"/><path class="st0" d="M20.9 5.3c0 3-1.9 4.6-4 4.6 -2.2 0-3.9-1.6-3.9-4.3 0-2.6 1.6-4.5 4-4.5C19.5 1.1 20.9 2.9 20.9 5.3zM15.5 5.5C15.5 7 16 8.1 17 8.1c0.9 0 1.4-1 1.4-2.6C18.4 4 18 2.9 17 2.9 16 2.9 15.5 4 15.5 5.5zM17.1 15.9l8.2-14.8h1.8l-8.2 14.8H17.1zM31.2 11.3c0 3-1.9 4.6-4 4.6 -2.2 0-3.9-1.6-3.9-4.3 0-2.6 1.6-4.5 4-4.5C29.8 7 31.2 8.8 31.2 11.3zM25.9 11.4c0 1.5 0.5 2.6 1.5 2.6 0.9 0 1.4-1 1.4-2.6 0-1.5-0.4-2.6-1.4-2.6C26.3 8.8 25.9 10 25.9 11.4z"/><path class="st1" d="M41.6 11l-1.5 4.7h-2l5-14.8h2.3l5.1 14.8h-2L46.9 11H41.6zM46.5 9.5l-1.5-4.3c-0.3-1-0.5-1.8-0.8-2.7h0c-0.2 0.9-0.5 1.8-0.7 2.7L42 9.5H46.5z"/><path class="st1" d="M53.3 1c0.9-0.2 2.1-0.3 3.7-0.3 1.9 0 3.3 0.4 4.2 1.2 0.8 0.7 1.3 1.8 1.3 3.1 0 1.3-0.4 2.4-1.1 3.2 -1 1.1-2.7 1.6-4.5 1.6 -0.6 0-1.1 0-1.5-0.1v5.9h-1.9V1zM55.2 8.1c0.4 0.1 0.9 0.2 1.6 0.2 2.3 0 3.7-1.1 3.7-3.2 0-2-1.4-2.9-3.5-2.9 -0.8 0-1.5 0.1-1.8 0.2V8.1z"/><path class="st1" d="M65.5 1c1-0.2 2.4-0.3 3.7-0.3 2 0 3.4 0.4 4.3 1.2 0.7 0.7 1.2 1.7 1.2 2.8 0 2-1.2 3.3-2.8 3.8v0.1C73 9 73.7 10 74 11.6c0.5 2.1 0.8 3.5 1.1 4.1h-2c-0.2-0.4-0.6-1.7-1-3.5 -0.4-2-1.2-2.8-3-2.9h-1.8v6.4h-1.9V1zM67.4 7.7h2c2 0 3.3-1.1 3.3-2.8 0-1.9-1.4-2.8-3.4-2.8 -0.9 0-1.6 0.1-1.9 0.2V7.7z"/><path class="st1" d="M97.9 10.2c0 3.9-2.7 5.7-5.3 5.7 -2.9 0-5.1-2.1-5.1-5.5 0-3.6 2.3-5.7 5.3-5.7C95.8 4.7 97.9 7 97.9 10.2zM89.5 10.3c0 2.3 1.3 4.1 3.2 4.1 1.8 0 3.2-1.7 3.2-4.1 0-1.8-0.9-4.1-3.2-4.1C90.4 6.2 89.5 8.3 89.5 10.3z"/><path class="st1" d="M100.9 7.9c0-1.1 0-2-0.1-2.9h1.7l0.1 1.8h0c0.5-1 1.8-2 3.5-2 1.5 0 3.8 0.9 3.8 4.5v6.4H108V9.5c0-1.7-0.6-3.1-2.5-3.1 -1.3 0-2.3 0.9-2.6 2 -0.1 0.2-0.1 0.6-0.1 0.9v6.4h-1.9V7.9z"/><path class="st1" d="M118.9 8.4c0-1.4 0-2.5-0.1-3.5h1.7l0.1 1.8h0c0.8-1.3 2-2.1 3.8-2.1 2.6 0 4.5 2.2 4.5 5.4 0 3.8-2.3 5.7-4.8 5.7 -1.4 0-2.6-0.6-3.3-1.7h0V20h-1.9V8.4zM120.8 11.3c0 0.3 0 0.5 0.1 0.8 0.4 1.3 1.5 2.3 2.9 2.3 2 0 3.2-1.7 3.2-4.1 0-2.1-1.1-4-3.2-4 -1.3 0-2.6 0.9-2.9 2.4 -0.1 0.2-0.1 0.5-0.1 0.8V11.3z"/><path class="st1" d="M140.8 12.7c0 1.1 0 2.1 0.1 2.9h-1.7l-0.1-1.7h0c-0.5 0.9-1.6 2-3.5 2 -1.7 0-3.7-0.9-3.7-4.7V5h1.9v5.9c0 2 0.6 3.4 2.4 3.4 1.3 0 2.2-0.9 2.6-1.8 0.1-0.3 0.2-0.6 0.2-1V5h1.9V12.7z"/><path class="st1" d="M144.6 8.3c0-1.3 0-2.3-0.1-3.3h1.7l0.1 2.1h0.1c0.5-1.4 1.7-2.3 2.9-2.3 0.2 0 0.4 0 0.6 0.1v1.8c-0.2 0-0.4-0.1-0.7-0.1 -1.4 0-2.3 1-2.6 2.5 0 0.3-0.1 0.6-0.1 0.9v5.7h-1.9V8.3z"/><path class="st1" d="M159.7 15.2c-0.5 0.3-1.6 0.6-3.1 0.6 -3.2 0-5.3-2.2-5.3-5.4 0-3.3 2.2-5.7 5.7-5.7 1.1 0 2.2 0.3 2.7 0.6l-0.4 1.5c-0.5-0.3-1.2-0.5-2.2-0.5 -2.4 0-3.8 1.8-3.8 4 0 2.5 1.6 4 3.7 4 1.1 0 1.8-0.3 2.4-0.5L159.7 15.2z"/><path class="st1" d="M162.5 0h1.9v6.6h0c0.3-0.5 0.8-1 1.4-1.4 0.6-0.3 1.3-0.6 2-0.6 1.4 0 3.7 0.9 3.7 4.6v6.3h-1.9V9.5c0-1.7-0.6-3.2-2.5-3.2 -1.3 0-2.2 0.9-2.6 1.9 -0.1 0.3-0.1 0.6-0.1 0.9v6.4h-1.9V0z"/><path class="st1" d="M181.2 15.6l-0.2-1.3H181c-0.6 0.8-1.7 1.6-3.3 1.6 -2.2 0-3.3-1.5-3.3-3.1 0-2.6 2.3-4 6.4-4V8.6c0-0.9-0.2-2.5-2.4-2.5 -1 0-2 0.3-2.8 0.8l-0.4-1.3c0.9-0.6 2.2-0.9 3.5-0.9 3.3 0 4 2.2 4 4.4v4c0 0.9 0 1.8 0.2 2.6H181.2zM180.9 10.2c-2.1 0-4.5 0.3-4.5 2.4 0 1.3 0.8 1.8 1.8 1.8 1.4 0 2.3-0.9 2.6-1.8 0.1-0.2 0.1-0.4 0.1-0.6V10.2z"/><path class="st1" d="M186.2 13.6c0.6 0.4 1.6 0.8 2.6 0.8 1.4 0 2.1-0.7 2.1-1.6 0-0.9-0.5-1.4-2-2 -1.9-0.7-2.8-1.7-2.8-3 0-1.7 1.4-3.1 3.7-3.1 1.1 0 2 0.3 2.6 0.7l-0.5 1.4c-0.4-0.3-1.2-0.6-2.2-0.6 -1.1 0-1.8 0.7-1.8 1.5 0 0.9 0.6 1.3 2 1.8 1.8 0.7 2.8 1.6 2.8 3.2 0 1.9-1.5 3.2-4 3.2 -1.2 0-2.2-0.3-3-0.7L186.2 13.6z"/><path class="st1" d="M196.8 10.6c0 2.6 1.7 3.7 3.7 3.7 1.4 0 2.2-0.2 2.9-0.5l0.3 1.4c-0.7 0.3-1.8 0.7-3.5 0.7 -3.3 0-5.2-2.2-5.2-5.4s1.9-5.7 5-5.7c3.5 0 4.4 3.1 4.4 5 0 0.4 0 0.7-0.1 0.9H196.8zM202.5 9.3c0-1.2-0.5-3.1-2.7-3.1 -2 0-2.8 1.8-3 3.1H202.5z"/><path class="st1" d="M207 13.6c0.6 0.4 1.6 0.8 2.6 0.8 1.4 0 2.1-0.7 2.1-1.6 0-0.9-0.5-1.4-2-2 -1.9-0.7-2.8-1.7-2.8-3 0-1.7 1.4-3.1 3.7-3.1 1.1 0 2 0.3 2.6 0.7l-0.5 1.4c-0.4-0.3-1.2-0.6-2.2-0.6 -1.1 0-1.8 0.7-1.8 1.5 0 0.9 0.6 1.3 2 1.8 1.8 0.7 2.8 1.6 2.8 3.2 0 1.9-1.5 3.2-4 3.2 -1.2 0-2.2-0.3-3-0.7L207 13.6z"/><path class="st1" d="M1.5 39.6v-9.2H0V29h1.5v-0.5c0-1.5 0.3-2.9 1.2-3.7 0.7-0.7 1.7-1 2.6-1 0.7 0 1.3 0.2 1.7 0.3l-0.3 1.5c-0.3-0.1-0.7-0.2-1.2-0.2 -1.6 0-2.1 1.5-2.1 3.1V29H6v1.5H3.4v9.2H1.5z"/><path class="st1" d="M17.6 34.2c0 3.9-2.7 5.7-5.3 5.7 -2.9 0-5.1-2.1-5.1-5.5 0-3.6 2.3-5.7 5.3-5.7C15.6 28.7 17.6 31 17.6 34.2zM9.2 34.3c0 2.3 1.3 4.1 3.2 4.1 1.8 0 3.2-1.7 3.2-4.1 0-1.8-0.9-4.1-3.2-4.1C10.2 30.2 9.2 32.3 9.2 34.3z"/><path class="st1" d="M20.6 32.3c0-1.3 0-2.3-0.1-3.3h1.7l0.1 2.1h0.1c0.5-1.4 1.6-2.3 2.9-2.3 0.2 0 0.4 0 0.5 0.1v1.8c-0.2 0-0.4-0.1-0.7-0.1 -1.4 0-2.3 1-2.6 2.5 0 0.3-0.1 0.6-0.1 0.9v5.7h-1.9V32.3z"/><path class="st1" d="M37.2 27.1L37.2 27.1l-2.5 1.3L34.3 27l3.1-1.7H39v14.3h-1.9V27.1z"/><path class="st1" d="M44.8 39.6v-1.2l1.5-1.5c3.7-3.5 5.3-5.3 5.3-7.5 0-1.5-0.7-2.8-2.8-2.8 -1.3 0-2.4 0.7-3 1.2l-0.6-1.4c1-0.8 2.4-1.5 4-1.5 3.1 0 4.4 2.1 4.4 4.2 0 2.6-1.9 4.8-4.9 7.7L47.5 38v0h6.4v1.6H44.8z"/><path class="st1" d="M62.5 31.9c0-1.1 0-2-0.1-2.9h1.7l0.1 1.7h0.1c0.6-1 1.6-2 3.3-2 1.5 0 2.6 0.9 3 2.1h0c0.3-0.6 0.7-1.1 1.2-1.4 0.6-0.5 1.3-0.7 2.4-0.7 1.4 0 3.5 0.9 3.5 4.6v6.3h-1.9v-6c0-2-0.7-3.3-2.3-3.3 -1.1 0-2 0.8-2.3 1.8 -0.1 0.3-0.2 0.6-0.2 1v6.6h-1.9v-6.4c0-1.7-0.7-2.9-2.2-2.9 -1.2 0-2.1 1-2.4 1.9 -0.1 0.3-0.2 0.6-0.2 0.9v6.4h-1.9V31.9z"/><path class="st1" d="M91 34.2c0 3.9-2.7 5.7-5.3 5.7 -2.9 0-5.1-2.1-5.1-5.5 0-3.6 2.3-5.7 5.3-5.7C88.9 28.7 91 31 91 34.2zM82.5 34.3c0 2.3 1.3 4.1 3.2 4.1 1.8 0 3.2-1.7 3.2-4.1 0-1.8-0.9-4.1-3.2-4.1C83.5 30.2 82.5 32.3 82.5 34.3z"/><path class="st1" d="M94 31.9c0-1.1 0-2-0.1-2.9h1.7l0.1 1.8h0c0.5-1 1.8-2 3.5-2 1.5 0 3.8 0.9 3.8 4.5v6.4h-1.9v-6.1c0-1.7-0.6-3.1-2.5-3.1 -1.3 0-2.3 0.9-2.6 2 -0.1 0.2-0.1 0.6-0.1 0.9v6.4H94V31.9z"/><path class="st1" d="M109 25.9V29h2.8v1.5H109v5.7c0 1.3 0.4 2.1 1.5 2.1 0.5 0 0.9-0.1 1.1-0.1l0.1 1.5c-0.4 0.2-1 0.3-1.7 0.3 -0.9 0-1.6-0.3-2.1-0.8 -0.6-0.6-0.7-1.5-0.7-2.8v-5.8h-1.7V29h1.7v-2.6L109 25.9z"/><path class="st1" d="M114.5 24h1.9v6.6h0c0.3-0.5 0.8-1 1.4-1.4 0.6-0.3 1.3-0.6 2-0.6 1.4 0 3.7 0.9 3.7 4.6v6.3h-1.9v-6.1c0-1.7-0.6-3.2-2.5-3.2 -1.3 0-2.2 0.9-2.6 1.9 -0.1 0.3-0.1 0.6-0.1 0.9v6.4h-1.9V24z"/><path class="st1" d="M127 37.6c0.6 0.4 1.6 0.8 2.6 0.8 1.4 0 2.1-0.7 2.1-1.6 0-0.9-0.5-1.4-2-2 -1.9-0.7-2.8-1.7-2.8-3 0-1.7 1.4-3.1 3.7-3.1 1.1 0 2 0.3 2.6 0.7l-0.5 1.4c-0.4-0.3-1.2-0.6-2.2-0.6 -1.1 0-1.8 0.7-1.8 1.5 0 0.9 0.6 1.3 2 1.8 1.8 0.7 2.8 1.6 2.8 3.2 0 1.9-1.5 3.2-4 3.2 -1.2 0-2.2-0.3-3-0.7L127 37.6z"/><path class="st1" d="M80.3 0.5L79 2.3v0L81.1 2v1L79 2.7v0l1.3 1.7 -0.9 0.5 -0.8-2h0l-0.9 2 -0.8-0.5 1.3-1.7v0L76.1 3V2l2.1 0.3v0l-1.3-1.7L77.7 0 78.6 2h0l0.9-2L80.3 0.5z"/><path class="st0" d="M1.1 72.6V57.8h3.9l3.1 5.4c0.9 1.6 1.8 3.4 2.4 5.1h0.1c-0.2-2-0.3-4-0.3-6.2v-4.3h3.1v14.8H9.9l-3.2-5.7c-0.9-1.6-1.8-3.5-2.6-5.2l-0.1 0c0.1 2 0.1 4 0.1 6.5v4.5H1.1z"/><path class="st0" d="M27.3 67.1c0 3.9-2.8 5.7-5.7 5.7 -3.1 0-5.6-2.1-5.6-5.5s2.3-5.7 5.7-5.7C25.1 61.6 27.3 63.9 27.3 67.1zM19.5 67.2c0 1.8 0.8 3.2 2.2 3.2 1.3 0 2.1-1.3 2.1-3.2 0-1.6-0.6-3.2-2.1-3.2C20.1 64 19.5 65.6 19.5 67.2z"/><path class="st1" d="M35.5 58c0.8-0.2 2.2-0.3 3.5-0.3 1.9 0 3.1 0.3 4.1 1.1 0.8 0.6 1.2 1.5 1.2 2.6 0 1.4-0.9 2.7-2.5 3.3v0c1.4 0.4 3.1 1.5 3.1 3.7 0 1.3-0.5 2.2-1.3 3 -1 0.9-2.7 1.4-5.1 1.4 -1.3 0-2.3-0.1-3-0.2V58zM37.4 64.1h1.7c2 0 3.2-1.1 3.2-2.5 0-1.7-1.3-2.4-3.3-2.4 -0.9 0-1.4 0.1-1.7 0.1V64.1zM37.4 71.2c0.4 0.1 0.9 0.1 1.6 0.1 2 0 3.8-0.7 3.8-2.9 0-2-1.7-2.9-3.8-2.9h-1.6V71.2z"/><path class="st1" d="M53.8 72.6l-0.2-1.3h-0.1c-0.6 0.8-1.7 1.6-3.3 1.6 -2.2 0-3.3-1.5-3.3-3.1 0-2.6 2.3-4 6.4-4v-0.2c0-0.9-0.2-2.5-2.4-2.5 -1 0-2 0.3-2.8 0.8l-0.4-1.3c0.9-0.6 2.2-0.9 3.5-0.9 3.3 0 4 2.2 4 4.4v4c0 0.9 0 1.8 0.2 2.6H53.8zM53.5 67.2c-2.1 0-4.5 0.3-4.5 2.4 0 1.3 0.8 1.8 1.8 1.8 1.4 0 2.3-0.9 2.6-1.8 0.1-0.2 0.1-0.4 0.1-0.6V67.2z"/><path class="st1" d="M59 57H61v15.6H59V57z"/><path class="st1" d="M70.7 72.6l-0.2-1.3h-0.1c-0.6 0.8-1.7 1.6-3.3 1.6 -2.2 0-3.3-1.5-3.3-3.1 0-2.6 2.3-4 6.4-4v-0.2c0-0.9-0.2-2.5-2.4-2.5 -1 0-2 0.3-2.8 0.8l-0.4-1.3c0.9-0.6 2.2-0.9 3.5-0.9 3.3 0 4 2.2 4 4.4v4c0 0.9 0 1.8 0.2 2.6H70.7zM70.4 67.2c-2.1 0-4.5 0.3-4.5 2.4 0 1.3 0.8 1.8 1.8 1.8 1.4 0 2.3-0.9 2.6-1.8 0.1-0.2 0.1-0.4 0.1-0.6V67.2z"/><path class="st1" d="M75.9 64.9c0-1.1 0-2-0.1-2.9h1.7l0.1 1.8h0c0.5-1 1.8-2 3.5-2 1.5 0 3.8 0.9 3.8 4.5v6.4h-1.9v-6.1c0-1.7-0.6-3.1-2.5-3.1 -1.3 0-2.3 0.9-2.6 2 -0.1 0.2-0.1 0.6-0.1 0.9v6.4h-1.9V64.9z"/><path class="st1" d="M96.3 72.2c-0.5 0.3-1.6 0.6-3.1 0.6 -3.2 0-5.3-2.2-5.3-5.4 0-3.3 2.2-5.7 5.7-5.7 1.1 0 2.2 0.3 2.7 0.5l-0.4 1.5c-0.5-0.3-1.2-0.5-2.2-0.5 -2.4 0-3.8 1.8-3.8 4 0 2.5 1.6 4 3.7 4 1.1 0 1.8-0.3 2.4-0.5L96.3 72.2z"/><path class="st1" d="M100.1 67.6c0 2.6 1.7 3.7 3.7 3.7 1.4 0 2.2-0.2 2.9-0.5l0.3 1.4c-0.7 0.3-1.8 0.7-3.5 0.7 -3.3 0-5.2-2.2-5.2-5.4 0-3.2 1.9-5.7 5-5.7 3.5 0 4.4 3.1 4.4 5 0 0.4 0 0.7-0.1 0.9H100.1zM105.7 66.3c0-1.2-0.5-3.1-2.7-3.1 -2 0-2.8 1.8-3 3.1H105.7z"/><path class="st1" d="M117.7 59.4h-4.5v-1.6h11v1.6h-4.5v13.2h-1.9V59.4z"/><path class="st1" d="M125.4 65.3c0-1.3 0-2.3-0.1-3.3h1.7l0.1 2.1h0.1c0.5-1.4 1.7-2.3 2.9-2.3 0.2 0 0.4 0 0.6 0.1v1.8c-0.2 0-0.4-0.1-0.7-0.1 -1.4 0-2.3 1-2.6 2.5 0 0.3-0.1 0.6-0.1 0.9v5.7h-1.9V65.3z"/><path class="st1" d="M138.9 72.6l-0.2-1.3h-0.1c-0.6 0.8-1.7 1.6-3.3 1.6 -2.2 0-3.3-1.5-3.3-3.1 0-2.6 2.3-4 6.4-4v-0.2c0-0.9-0.2-2.5-2.4-2.5 -1 0-2 0.3-2.8 0.8l-0.4-1.3c0.9-0.6 2.2-0.9 3.5-0.9 3.3 0 4 2.2 4 4.4v4c0 0.9 0 1.8 0.2 2.6H138.9zM138.6 67.2c-2.1 0-4.5 0.3-4.5 2.4 0 1.3 0.8 1.8 1.8 1.8 1.4 0 2.3-0.9 2.6-1.8 0.1-0.2 0.1-0.4 0.1-0.6V67.2z"/><path class="st1" d="M144.1 64.9c0-1.1 0-2-0.1-2.9h1.7l0.1 1.8h0c0.5-1 1.8-2 3.5-2 1.5 0 3.8 0.9 3.8 4.5v6.4h-1.9v-6.1c0-1.7-0.6-3.1-2.5-3.1 -1.3 0-2.3 0.9-2.6 2 -0.1 0.2-0.1 0.6-0.1 0.9v6.4h-1.9V64.9z"/><path class="st1" d="M156.6 70.6c0.6 0.4 1.6 0.8 2.6 0.8 1.4 0 2.1-0.7 2.1-1.6 0-0.9-0.5-1.4-2-2 -1.9-0.7-2.8-1.7-2.8-3 0-1.7 1.4-3.1 3.7-3.1 1.1 0 2 0.3 2.6 0.7l-0.5 1.4c-0.4-0.3-1.2-0.6-2.2-0.6 -1.1 0-1.8 0.7-1.8 1.5 0 0.9 0.6 1.3 2 1.8 1.8 0.7 2.8 1.6 2.8 3.2 0 1.9-1.5 3.2-4 3.2 -1.2 0-2.2-0.3-3-0.7L156.6 70.6z"/><path class="st1" d="M166.4 72.6v-9.2h-1.5V62h1.5v-0.5c0-1.5 0.3-2.9 1.2-3.7 0.7-0.7 1.7-1 2.6-1 0.7 0 1.3 0.2 1.7 0.3l-0.3 1.5c-0.3-0.1-0.7-0.2-1.2-0.2 -1.7 0-2.1 1.5-2.1 3.1V62h2.6v1.5h-2.6v9.2H166.4z"/><path class="st1" d="M173.9 67.6c0 2.6 1.7 3.7 3.7 3.7 1.4 0 2.2-0.2 2.9-0.5l0.3 1.4c-0.7 0.3-1.8 0.7-3.5 0.7 -3.3 0-5.2-2.2-5.2-5.4 0-3.2 1.9-5.7 5-5.7 3.5 0 4.4 3.1 4.4 5 0 0.4 0 0.7-0.1 0.9H173.9zM179.6 66.3c0-1.2-0.5-3.1-2.7-3.1 -2 0-2.8 1.8-3 3.1H179.6z"/><path class="st1" d="M184.4 65.3c0-1.3 0-2.3-0.1-3.3h1.7l0.1 2.1h0.1c0.5-1.4 1.7-2.3 2.9-2.3 0.2 0 0.4 0 0.6 0.1v1.8c-0.2 0-0.4-0.1-0.7-0.1 -1.4 0-2.3 1-2.6 2.5 0 0.3-0.1 0.6-0.1 0.9v5.7h-1.9V65.3z"/><path class="st1" d="M197.4 57.8h8v1.6h-6.1v4.9h5.6v1.6h-5.6v6.7h-1.9V57.8z"/><path class="st1" d="M209 67.6c0 2.6 1.7 3.7 3.7 3.7 1.4 0 2.2-0.2 2.9-0.5l0.3 1.4c-0.7 0.3-1.8 0.7-3.5 0.7 -3.3 0-5.2-2.2-5.2-5.4 0-3.2 1.9-5.7 5-5.7 3.5 0 4.4 3.1 4.4 5 0 0.4 0 0.7-0.1 0.9H209zM214.7 66.3c0-1.2-0.5-3.1-2.7-3.1 -2 0-2.8 1.8-3 3.1H214.7z"/><path class="st1" d="M220.6 67.6c0 2.6 1.7 3.7 3.7 3.7 1.4 0 2.2-0.2 2.9-0.5l0.3 1.4c-0.7 0.3-1.8 0.7-3.5 0.7 -3.3 0-5.2-2.2-5.2-5.4 0-3.2 1.9-5.7 5-5.7 3.5 0 4.4 3.1 4.4 5 0 0.4 0 0.7-0.1 0.9H220.6zM226.3 66.3c0-1.2-0.5-3.1-2.7-3.1 -2 0-2.8 1.8-3 3.1H226.3z"/><path class="st1" d="M230.8 70.6c0.6 0.4 1.6 0.8 2.6 0.8 1.4 0 2.1-0.7 2.1-1.6 0-0.9-0.5-1.4-2-2 -1.9-0.7-2.8-1.7-2.8-3 0-1.7 1.4-3.1 3.7-3.1 1.1 0 2 0.3 2.6 0.7l-0.5 1.4c-0.4-0.3-1.2-0.6-2.2-0.6 -1.1 0-1.8 0.7-1.8 1.5 0 0.9 0.6 1.3 2 1.8 1.8 0.7 2.8 1.6 2.8 3.2 0 1.9-1.5 3.2-4 3.2 -1.2 0-2.2-0.3-3-0.7L230.8 70.6z"/><path class="st0" d="M1.1 105.6V90.8h3.9l3.1 5.4c0.9 1.6 1.8 3.4 2.4 5.1h0.1c-0.2-2-0.3-4-0.3-6.2v-4.3h3.1v14.8H9.9l-3.2-5.7c-0.9-1.6-1.8-3.5-2.6-5.2l-0.1 0c0.1 2 0.1 4 0.1 6.5v4.5H1.1z"/><path class="st0" d="M27.3 100.1c0 3.9-2.8 5.7-5.7 5.7 -3.1 0-5.6-2.1-5.6-5.5s2.3-5.7 5.7-5.7C25.1 94.6 27.3 96.9 27.3 100.1zM19.5 100.2c0 1.8 0.8 3.2 2.2 3.2 1.3 0 2.1-1.3 2.1-3.2 0-1.6-0.6-3.2-2.1-3.2C20.1 97 19.5 98.6 19.5 100.2z"/><path class="st1" d="M37.9 101l-1.5 4.7h-2l5-14.8h2.3l5.1 14.8h-2l-1.6-4.7H37.9zM42.7 99.5l-1.5-4.3c-0.3-1-0.5-1.8-0.8-2.7h0c-0.2 0.9-0.5 1.8-0.7 2.7l-1.5 4.3H42.7z"/><path class="st1" d="M49.4 97.9c0-1.1 0-2-0.1-2.9H51l0.1 1.8h0c0.5-1 1.8-2 3.5-2 1.5 0 3.8 0.9 3.8 4.5v6.4h-1.9v-6.1c0-1.7-0.6-3.1-2.5-3.1 -1.3 0-2.3 0.9-2.6 2 -0.1 0.2-0.1 0.6-0.1 0.9v6.4h-1.9V97.9z"/><path class="st1" d="M62.1 97.9c0-1.1 0-2-0.1-2.9h1.7l0.1 1.8h0c0.5-1 1.8-2 3.5-2 1.5 0 3.8 0.9 3.8 4.5v6.4h-1.9v-6.1c0-1.7-0.6-3.1-2.5-3.1 -1.3 0-2.3 0.9-2.6 2 -0.1 0.2-0.1 0.6-0.1 0.9v6.4h-1.9V97.9z"/><path class="st1" d="M83.8 102.7c0 1.1 0 2.1 0.1 2.9h-1.7l-0.1-1.7h0c-0.5 0.9-1.6 2-3.5 2 -1.7 0-3.7-0.9-3.7-4.7V95h1.9v5.9c0 2 0.6 3.4 2.4 3.4 1.3 0 2.2-0.9 2.6-1.8 0.1-0.3 0.2-0.6 0.2-1V95h1.9V102.7z"/><path class="st1" d="M93.5 105.6l-0.2-1.3h-0.1c-0.6 0.8-1.7 1.6-3.3 1.6 -2.2 0-3.3-1.5-3.3-3.1 0-2.6 2.3-4 6.4-4v-0.2c0-0.9-0.2-2.5-2.4-2.5 -1 0-2 0.3-2.8 0.8l-0.4-1.3c0.9-0.6 2.2-0.9 3.5-0.9 3.3 0 4 2.2 4 4.4v4c0 0.9 0 1.8 0.2 2.6H93.5zM93.2 100.2c-2.1 0-4.5 0.3-4.5 2.4 0 1.3 0.8 1.8 1.8 1.8 1.4 0 2.3-0.9 2.6-1.8 0.1-0.2 0.1-0.4 0.1-0.6V100.2z"/><path class="st1" d="M98.7 90h1.9v15.6h-1.9V90z"/><path class="st1" d="M109.7 90.8h8v1.6h-6.1v4.9h5.6v1.6h-5.6v6.7h-1.9V90.8z"/><path class="st1" d="M121.3 100.6c0 2.6 1.7 3.7 3.7 3.7 1.4 0 2.2-0.2 2.9-0.5l0.3 1.4c-0.7 0.3-1.8 0.7-3.5 0.7 -3.3 0-5.2-2.2-5.2-5.4 0-3.2 1.9-5.7 5-5.7 3.5 0 4.4 3.1 4.4 5 0 0.4 0 0.7-0.1 0.9H121.3zM127 99.3c0-1.2-0.5-3.1-2.7-3.1 -2 0-2.8 1.8-3 3.1H127z"/><path class="st1" d="M132.9 100.6c0 2.6 1.7 3.7 3.7 3.7 1.4 0 2.2-0.2 2.9-0.5l0.3 1.4c-0.7 0.3-1.8 0.7-3.5 0.7 -3.3 0-5.2-2.2-5.2-5.4 0-3.2 1.9-5.7 5-5.7 3.5 0 4.4 3.1 4.4 5 0 0.4 0 0.7-0.1 0.9H132.9zM138.6 99.3c0-1.2-0.5-3.1-2.7-3.1 -2 0-2.8 1.8-3 3.1H138.6z"/><path class="st0" d="M1.1 138.6v-14.8h3.9l3.1 5.4c0.9 1.6 1.8 3.4 2.4 5.1h0.1c-0.2-2-0.3-4-0.3-6.2v-4.3h3.1v14.8H9.9l-3.2-5.7c-0.9-1.6-1.8-3.5-2.6-5.2l-0.1 0c0.1 2 0.1 4 0.1 6.5v4.5H1.1z"/><path class="st0" d="M27.3 133.1c0 3.9-2.8 5.7-5.7 5.7 -3.1 0-5.6-2.1-5.6-5.5s2.3-5.7 5.7-5.7C25.1 127.6 27.3 129.9 27.3 133.1zM19.5 133.2c0 1.8 0.8 3.2 2.2 3.2 1.3 0 2.1-1.3 2.1-3.2 0-1.6-0.6-3.2-2.1-3.2C20.1 130 19.5 131.6 19.5 133.2z"/><path class="st1" d="M35.5 124c0.9-0.2 2.1-0.3 3.7-0.3 1.9 0 3.3 0.4 4.2 1.2 0.8 0.7 1.3 1.8 1.3 3.1 0 1.3-0.4 2.4-1.1 3.2 -1 1.1-2.7 1.6-4.5 1.6 -0.6 0-1.1 0-1.5-0.1v5.9h-1.9V124zM37.4 131.1c0.4 0.1 0.9 0.2 1.6 0.2 2.3 0 3.7-1.1 3.7-3.2 0-2-1.4-2.9-3.5-2.9 -0.8 0-1.5 0.1-1.8 0.2V131.1z"/><path class="st1" d="M48.2 133.6c0 2.6 1.7 3.7 3.7 3.7 1.4 0 2.2-0.2 2.9-0.5l0.3 1.4c-0.7 0.3-1.8 0.7-3.5 0.7 -3.3 0-5.2-2.2-5.2-5.4 0-3.2 1.9-5.7 5-5.7 3.5 0 4.4 3.1 4.4 5 0 0.4 0 0.7-0.1 0.9H48.2zM53.9 132.3c0-1.2-0.5-3.1-2.7-3.1 -2 0-2.8 1.8-3 3.1H53.9z"/><path class="st1" d="M58.7 130.9c0-1.1 0-2-0.1-2.9h1.7l0.1 1.8h0c0.5-1 1.8-2 3.5-2 1.5 0 3.8 0.9 3.8 4.5v6.4h-1.9v-6.1c0-1.7-0.6-3.1-2.5-3.1 -1.3 0-2.3 0.9-2.6 2 -0.1 0.2-0.1 0.6-0.1 0.9v6.4h-1.9V130.9z"/><path class="st1" d="M77.4 138.6l-0.2-1.3h-0.1c-0.6 0.8-1.7 1.6-3.3 1.6 -2.2 0-3.3-1.5-3.3-3.1 0-2.6 2.3-4 6.4-4v-0.2c0-0.9-0.2-2.5-2.4-2.5 -1 0-2 0.3-2.8 0.8l-0.4-1.3c0.9-0.6 2.2-0.9 3.5-0.9 3.3 0 4 2.2 4 4.4v4c0 0.9 0 1.8 0.2 2.6H77.4zM77.1 133.2c-2.1 0-4.5 0.3-4.5 2.4 0 1.3 0.8 1.8 1.8 1.8 1.4 0 2.3-0.9 2.6-1.8 0.1-0.2 0.1-0.4 0.1-0.6V133.2z"/><path class="st1" d="M82.6 123h1.9v15.6h-1.9V123z"/><path class="st1" d="M90.7 124.9v3.1h2.8v1.5h-2.8v5.7c0 1.3 0.4 2.1 1.5 2.1 0.5 0 0.9-0.1 1.1-0.1l0.1 1.5c-0.4 0.2-1 0.3-1.7 0.3 -0.9 0-1.6-0.3-2.1-0.8 -0.6-0.6-0.7-1.5-0.7-2.8v-5.8h-1.7V128h1.7v-2.6L90.7 124.9z"/><path class="st1" d="M97.1 128l2.3 6.3c0.2 0.7 0.5 1.5 0.7 2.2h0c0.2-0.6 0.4-1.5 0.7-2.2l2.1-6.2h2l-2.9 7.6c-1.4 3.7-2.3 5.5-3.7 6.7 -0.9 0.8-1.9 1.2-2.4 1.3l-0.5-1.6c0.5-0.2 1.1-0.5 1.7-0.9 0.5-0.4 1.2-1.2 1.6-2.2 0.1-0.2 0.2-0.4 0.2-0.5s0-0.3-0.1-0.5L95 128H97.1z"/><path class="st1" d="M112.6 124c1-0.2 2.4-0.3 3.7-0.3 2 0 3.4 0.4 4.3 1.2 0.7 0.7 1.2 1.7 1.2 2.8 0 2-1.2 3.3-2.8 3.8v0.1c1.1 0.4 1.8 1.5 2.2 3 0.5 2.1 0.8 3.5 1.1 4.1h-2c-0.2-0.4-0.6-1.7-1-3.5 -0.4-2-1.2-2.8-3-2.9h-1.8v6.4h-1.9V124zM114.5 130.7h2c2 0 3.3-1.1 3.3-2.8 0-1.9-1.4-2.8-3.4-2.8 -0.9 0-1.6 0.1-1.9 0.2V130.7z"/><path class="st1" d="M131.1 138.6l-0.2-1.3h-0.1c-0.6 0.8-1.7 1.6-3.3 1.6 -2.2 0-3.3-1.5-3.3-3.1 0-2.6 2.3-4 6.4-4v-0.2c0-0.9-0.2-2.5-2.4-2.5 -1 0-2 0.3-2.8 0.8l-0.4-1.3c0.9-0.6 2.2-0.9 3.5-0.9 3.3 0 4 2.2 4 4.4v4c0 0.9 0 1.8 0.2 2.6H131.1zM130.8 133.2c-2.1 0-4.5 0.3-4.5 2.4 0 1.3 0.8 1.8 1.8 1.8 1.4 0 2.3-0.9 2.6-1.8 0.1-0.2 0.1-0.4 0.1-0.6V133.2z"/><path class="st1" d="M138.6 124.9v3.1h2.8v1.5h-2.8v5.7c0 1.3 0.4 2.1 1.5 2.1 0.5 0 0.9-0.1 1.1-0.1l0.1 1.5c-0.4 0.2-1 0.3-1.7 0.3 -0.9 0-1.6-0.3-2.1-0.8 -0.5-0.6-0.7-1.5-0.7-2.8v-5.8H135V128h1.6v-2.6L138.6 124.9z"/><path class="st1" d="M145 133.6c0 2.6 1.7 3.7 3.7 3.7 1.4 0 2.2-0.2 2.9-0.5l0.3 1.4c-0.7 0.3-1.8 0.7-3.5 0.7 -3.3 0-5.2-2.2-5.2-5.4 0-3.2 1.9-5.7 5-5.7 3.5 0 4.4 3.1 4.4 5 0 0.4 0 0.7-0.1 0.9H145zM150.7 132.3c0-1.2-0.5-3.1-2.7-3.1 -2 0-2.8 1.8-3 3.1H150.7z"/><path class="st1" d="M155.2 136.6c0.6 0.4 1.6 0.8 2.6 0.8 1.4 0 2.1-0.7 2.1-1.6 0-0.9-0.5-1.4-2-2 -1.9-0.7-2.8-1.7-2.8-3 0-1.7 1.4-3.1 3.7-3.1 1.1 0 2 0.3 2.6 0.7l-0.5 1.4c-0.4-0.3-1.2-0.6-2.2-0.6 -1.1 0-1.8 0.7-1.8 1.5 0 0.9 0.6 1.3 2 1.8 1.8 0.7 2.8 1.6 2.8 3.2 0 1.9-1.5 3.2-4 3.2 -1.2 0-2.2-0.3-3-0.7L155.2 136.6z"/></svg>